<svg width="896" height="496" viewBox="0 0 896 496" fill="none" xmlns="http://www.w3.org/2000/svg">
<g clip-path="url(#clip0_16_4)">
<path d="M896.5 497C895.46 484.896 895.446 472.801 896.806 460.363C897 472.333 897 484.667 896.5 497Z" fill="#0FC3E8"/>
<path d="M277.432 228.453C267.325 229.304 260.497 233.4 259.251 243.915C258.971 246.272 257.291 246.863 255.333 246.9C250.173 246.998 245.01 247.002 239.849 247.044C236.967 247.067 235.84 245.697 235.655 242.763C234.753 228.388 241.392 217.194 255.275 211.84C272.234 205.299 289.622 205.211 306.455 211.976C318.57 216.844 325.358 226.396 325.384 239.923C325.43 264.737 325.405 289.551 325.39 314.364C325.38 331.703 319.095 341.267 302.637 346.464C286.324 351.616 269.761 351.506 253.778 344.716C241.882 339.662 235.769 330.398 235.721 317.341C235.703 312.345 235.628 307.346 235.757 302.353C236.071 290.103 243.904 278.973 255.415 274.741C266.975 270.49 278.639 266.521 290.248 262.403C300.3 258.837 303.052 253.912 301.869 241.717C301.199 234.801 296.281 230.572 287.291 229.128C284.164 228.626 281.049 228.064 277.432 228.453ZM289.206 286.805C282.655 289.204 275.943 291.243 269.594 294.092C261.422 297.76 258.045 305.064 259.449 314.266C260.86 323.515 264.541 327.106 274.625 328.464C279.396 329.107 284.222 329.095 289.003 328.024C297.532 326.114 301.607 321.565 301.838 312.777C302.069 303.973 301.927 295.158 301.899 286.348C301.896 285.25 302.108 283.965 300.201 282.908C297.071 284.005 293.499 285.256 289.206 286.805Z" fill="#0FC3E8"/>
<path d="M651.071 216.877C658.905 223.643 662.171 232.002 662.144 241.89C662.08 264.878 662.129 287.866 662.124 310.854C662.119 333.992 653.244 344.901 630.319 348.587C619.12 350.387 607.713 350.352 596.629 347.109C579.708 342.159 571.928 331.664 571.884 314.076C571.866 306.752 571.582 299.44 574.446 292.421C577.979 283.76 583.849 277.63 592.743 274.504C604.21 270.472 615.688 266.469 627.129 262.362C636.46 259.012 639.712 253.307 638.722 242.397C638.086 235.395 633.183 230.9 624.599 229.13C619.28 228.033 614.049 228.084 608.751 229.214C600.951 230.878 597.521 234.022 596.164 242.036C595.527 245.794 593.821 247.137 590.189 246.987C585.865 246.809 581.526 246.827 577.199 246.951C573.433 247.059 571.91 245.55 571.797 241.659C571.368 226.987 579.52 215.476 595.123 210.606C609.769 206.034 624.661 206.414 639.42 210.56C643.629 211.743 647.442 213.796 651.071 216.877ZM598.267 322.038C600.128 325.04 602.909 326.82 606.257 327.572C613.144 329.119 620.055 329.379 627.018 327.795C632.609 326.523 636.418 323.237 637.618 317.758C640.197 305.983 638.205 294.075 638.899 281.647C633.66 283.627 629.368 285.305 625.036 286.871C620.502 288.51 615.915 289.999 611.378 291.626C596.473 296.97 592.214 306.389 598.267 322.038Z" fill="#0FC3E8"/>
<path d="M390.98 245C390.992 235.173 390.981 225.845 391.022 216.518C391.053 209.299 391.283 209.093 398.713 209.001C401.877 208.963 405.052 209.129 408.205 208.931C412.687 208.65 414.342 210.429 414.319 215.038C414.171 243.519 414.232 272.001 414.302 300.483C414.313 304.798 414.647 309.12 414.986 313.426C415.614 321.401 418.606 325.415 426.254 327.213C432.772 328.746 439.544 328.789 446.044 327.015C454.292 324.764 457.749 319.99 457.772 311.294C457.855 280.148 457.835 249.001 457.866 217.855C457.874 209.234 457.995 209.059 466.375 209.02C483.868 208.938 480.947 207.918 481.029 223.608C481.183 253.089 480.547 282.585 481.329 312.046C481.908 333.864 469.388 344.459 451.27 347.75C440.182 349.764 429.055 349.605 418.032 347.162C400.236 343.218 390.972 331.675 390.95 313.456C390.921 290.804 390.967 268.152 390.98 245Z" fill="#0FC3E8"/>
<path d="M346.852 233C346.864 209.514 346.864 186.527 346.893 163.541C346.902 156.722 346.981 156.681 353.956 156.641C358.12 156.617 362.285 156.638 366.448 156.551C368.967 156.498 370.144 157.644 370.126 160.13C370.115 161.629 370.16 163.128 370.16 164.627C370.174 223.092 370.187 281.557 370.193 340.023C370.193 347.278 370.171 347.286 363.021 347.298C359.69 347.303 356.336 347.022 353.032 347.315C348.118 347.75 346.779 345.607 346.797 340.936C346.93 305.125 346.859 269.312 346.852 233Z" fill="#0FC3E8"/>
<path d="M540.814 207.689C546.909 206.427 552.534 207.427 558.171 207.735C561.558 207.92 562.657 209.435 561.527 212.614C561.416 212.925 561.39 213.266 561.301 213.586C560.099 217.912 559.864 222.914 557.437 226.384C554.594 230.449 549.04 227.47 544.78 228.379C541.856 229.002 538.821 229.333 536.041 230.355C528.664 233.067 526.095 237.011 526.086 245.216C526.05 276.537 526.062 307.858 526.053 339.179C526.051 347.197 526.044 347.2 518.028 347.203C515.029 347.205 512.012 346.978 509.036 347.235C504.351 347.64 502.551 345.968 502.648 341.046C502.92 327.224 502.731 313.392 502.729 299.564C502.728 280.905 503.2 262.231 502.607 243.59C501.965 223.425 512.469 213.844 530.493 209.113C533.685 208.275 537.066 208.159 540.814 207.689Z" fill="#0FC3E8"/>
</g>
<defs>
<clipPath id="clip0_16_4">
<rect width="896" height="496" fill="white"/>
</clipPath>
</defs>
</svg>
