<svg width="250" height="250" viewBox="0 0 250 250" fill="none" xmlns="http://www.w3.org/2000/svg">
<path d="M240.734 0H9.25468C3.70987 0 -0.4501 4.12631 0.0390946 9.00203L21.182 217.365C21.6718 222.237 26.4635 227.336 31.838 228.653L115.186 249.014C120.553 250.322 129.326 250.33 134.701 249.031L218.152 228.699C223.528 227.386 228.32 222.333 228.809 217.452L249.961 9.00203C250.45 4.12631 246.308 0 240.734 0ZM200.59 75.2131C200.586 75.245 200.558 75.2699 200.522 75.2752C200.486 75.2806 200.451 75.2641 200.435 75.2343L135.134 98.7679C134.204 99.1031 133.674 99.9704 133.867 100.838C134.061 101.705 134.926 102.331 135.932 102.331H186.725C189.427 102.331 192.001 103.34 193.808 105.107C195.615 106.874 196.483 109.233 196.196 111.595L188.26 177.068C187.87 180.281 185.416 183.01 181.951 184.082L128.037 200.765C126.007 201.393 123.793 201.398 121.758 200.778L68.0963 184.431C64.6098 183.369 62.1348 180.632 61.7428 177.405L58.1451 147.754C57.9561 146.197 58.528 144.643 59.7178 143.479C60.9082 142.315 62.6041 141.65 64.3845 141.65H79.317C82.5257 141.65 85.2169 143.778 85.5563 146.584L87.7638 164.81L124.919 176.168L162.245 164.706L166.81 126.906H61.2748C58.0757 126.906 55.3887 124.789 55.0379 121.993L53.0285 105.972C52.7217 103.528 54.2896 101.202 56.8732 100.265L124.417 75.7756C125.183 75.4978 125.618 74.7834 125.458 74.0685C125.296 73.3542 124.584 72.8395 123.756 72.8395H52.6426C50.5016 72.8395 48.7061 71.4177 48.4826 69.546L46.4256 52.3264C46.3018 51.2902 46.6841 50.2561 47.4771 49.4812C48.2701 48.7068 49.4 48.2644 50.585 48.2644H199.384C200.576 48.2644 201.71 48.7116 202.504 49.4929C203.298 50.2747 203.674 51.3167 203.54 52.3577L200.59 75.2131Z" fill="#0FC3E8"/>
</svg>
