<svg width="253" height="253" viewBox="0 0 253 253" fill="none" xmlns="http://www.w3.org/2000/svg">
<path d="M126.45 0C56.6131 0 0 57.5123 0 128.456C0 188.366 40.3713 238.693 94.9836 252.9C94.9471 238.055 94.8993 219.846 94.8712 214.173C58.3806 222.234 50.6812 198.451 50.6812 198.451C44.7155 183.049 36.1169 178.952 36.1169 178.952C24.2138 170.682 37.0133 170.851 37.0133 170.851C50.1838 171.789 57.1217 184.583 57.1217 184.583C68.8197 204.953 87.8069 199.063 95.2927 195.66C96.4701 187.05 99.8674 181.169 103.622 177.842C74.4875 174.473 43.8585 163.047 43.8585 111.99C43.8585 97.4424 48.9839 85.5561 57.3746 76.2241C56.0117 72.8661 51.5214 59.3135 58.6447 40.9586C58.6447 40.9586 69.6599 37.3786 94.7251 54.618C105.19 51.6647 116.41 50.1838 127.557 50.1332C138.704 50.1838 149.933 51.6647 160.417 54.618C185.454 37.3786 196.453 40.9586 196.453 40.9586C203.593 59.3135 199.103 72.8661 197.74 76.2241C206.15 85.5561 211.239 97.4424 211.239 111.99C211.239 163.171 180.554 174.436 151.344 177.738C156.048 181.874 160.24 189.981 160.24 202.413C160.24 212.284 160.195 235.012 160.153 252.262C213.619 237.274 252.9 187.539 252.9 128.456C252.9 57.5123 196.287 0 126.45 0Z" fill="#360745"/>
</svg>
