<svg width="223" height="253" viewBox="0 0 223 253" fill="none" xmlns="http://www.w3.org/2000/svg">
<path d="M0 0L20.2938 227.618L111.36 252.9L202.68 227.585L222.996 0H0ZM180.666 54.0166L179.393 68.1678L178.834 74.4425H178.744H111.498H111.402H72.0062L74.5577 103.029H111.402H111.498H168.771H176.294L175.614 110.526L169.052 184.021L168.634 188.736L111.498 204.574V204.579L111.369 204.616L54.1824 188.742L50.2709 144.909H63.1857H78.2922L80.2789 167.173L111.369 175.569L111.394 175.563L142.529 167.156L145.769 130.949H111.498H111.402H49.0261L42.164 54.0194L41.4953 46.5308H111.4H111.498H181.332L180.666 54.0166Z" fill="#0FC3E8"/>
</svg>
