<svg width="250" height="250" viewBox="0 0 250 250" fill="none" xmlns="http://www.w3.org/2000/svg">
<path d="M111.102 106.404L120.49 135.803H89.8503L99.0602 106.404C101.186 99.3203 102.956 90.9969 104.727 84.0899H105.081C106.852 90.9974 108.799 99.1431 111.102 106.404ZM250 41.6667V208.333C250 231.25 231.25 250 208.333 250H41.6668C18.75 250 0 231.25 0 208.333V41.6667C0 18.75 18.75 0 41.6668 0H208.334C231.25 0 250 18.75 250 41.6667ZM158.388 186.098L119.602 66.7357H91.7989L53.546 186.098H76.0377L86.3102 152.272H124.209L135.012 186.098H158.388ZM195.215 99.8516H173.254V186.098H195.215V99.8516ZM196.454 75.767C196.277 69.037 191.673 63.902 184.234 63.902C176.973 63.902 172.015 69.037 172.015 75.767C172.015 82.3203 176.796 87.4553 184.057 87.4553C191.673 87.4548 196.454 82.3198 196.454 75.767Z" fill="#0FC3E8"/>
</svg>
