<svg width="250" height="250" viewBox="0 0 250 250" fill="none" xmlns="http://www.w3.org/2000/svg">
<path fill-rule="evenodd" clip-rule="evenodd" d="M0 0H250V250H0V0ZM191.111 209.579C179.524 209.579 172.972 203.535 167.936 195.314L148.845 206.405C155.742 220.031 169.837 230.428 191.655 230.428C213.968 230.428 230.583 218.842 230.583 197.691C230.583 178.072 219.314 169.345 199.353 160.785L193.48 158.27C183.401 153.905 179.035 151.052 179.035 144.004C179.035 138.302 183.397 133.936 190.278 133.936C197.024 133.936 201.369 136.781 205.397 144.004L223.691 132.258C215.952 118.647 205.215 113.448 190.278 113.448C169.298 113.448 155.873 126.861 155.873 144.48C155.873 163.607 167.134 172.655 184.087 179.877L189.96 182.397C200.675 187.083 207.064 189.936 207.064 197.992C207.064 204.715 200.845 209.579 191.111 209.579ZM100.067 209.432C91.9959 209.432 88.6389 203.897 84.9483 197.349L65.8253 208.927C71.365 220.651 82.2579 230.385 101.067 230.385C121.884 230.385 136.147 219.314 136.147 194.989V114.79H112.655V194.671C112.655 206.412 107.785 209.432 100.067 209.432Z" fill="#0FC3E8"/>
</svg>
