<svg width="253" height="253" viewBox="0 0 253 253" fill="none" xmlns="http://www.w3.org/2000/svg">
<path d="M234.211 0H18.6893C8.36818 0 0 8.11247 0 18.1161V234.784C0 244.79 8.36818 252.9 18.6893 252.9H234.211C244.532 252.9 252.9 244.79 252.9 234.784V18.1161C252.9 8.11247 244.532 0 234.211 0ZM76.6624 211.703H38.4633V97.5042H76.6624V211.703ZM57.5629 81.9143H57.3156C44.4963 81.9143 36.2068 73.1443 36.2068 62.1853C36.2068 50.979 44.7493 42.4535 57.8158 42.4535C70.8851 42.4535 78.9273 50.979 79.1746 62.1853C79.1746 73.1443 70.8822 81.9143 57.5629 81.9143ZM214.4 211.703H176.207V150.61C176.207 135.259 170.677 124.786 156.854 124.786C146.3 124.786 140.017 131.848 137.254 138.668C136.246 141.107 135.998 144.515 135.998 147.93V211.703H97.7992C97.7992 211.703 98.2994 108.222 97.7992 97.5042H135.998V113.679C141.073 105.898 150.15 94.8263 170.424 94.8263C195.556 94.8263 214.4 111.147 214.4 146.224V211.703Z" fill="#360745"/>
</svg>
