<svg width="250" height="250" viewBox="0 0 250 250" fill="none" xmlns="http://www.w3.org/2000/svg">
<path fill-rule="evenodd" clip-rule="evenodd" d="M47.884 74.0633L34.6454 67.3251C33.8132 66.8892 33.2964 66.1025 33.2964 65.2487V50.9111C33.2964 50.0574 32.7857 49.2653 31.9518 48.8407L26.3164 45.9547C25.908 45.7375 25.4352 45.6308 24.9778 45.6308C24.5078 45.6308 24.0482 45.7375 23.6288 45.9547L17.9895 48.8407C17.1551 49.2658 16.6466 50.0579 16.6466 50.9111V65.2487C16.6466 66.1025 16.1358 66.8838 15.3003 67.3251L2.05736 74.0633C1.64622 74.2874 1.13546 74.2874 0.720461 74.0633C0.298862 73.8574 0.0489851 73.4596 0.0489851 73.0325L0 42.3412C0 41.4806 0.516267 40.69 1.34681 40.2634L23.6283 28.8651C24.0108 28.668 24.4318 28.5667 24.8567 28.5505C24.8898 28.5505 25.0505 28.5505 25.089 28.5505C25.5161 28.5667 25.9372 28.668 26.3158 28.8651L48.5956 40.2639C49.4322 40.691 49.9402 41.4811 49.9402 42.3417L49.8973 73.033C49.8973 73.4601 49.6392 73.8579 49.228 74.0638C48.818 74.2879 48.299 74.2879 47.884 74.0633ZM133.595 65.8368V42.9635C133.595 42.1083 134.108 41.3196 134.94 40.893L157.232 29.4581C158.062 29.031 159.088 29.0295 159.922 29.4561L165.501 32.3152C165.794 32.4654 166.154 32.4654 166.445 32.3152C166.734 32.165 166.915 31.8886 166.915 31.5902V1.19531C166.915 0.770166 167.167 0.379754 167.578 0.163022C167.991 -0.0507746 168.5 -0.0541993 168.917 0.152259L182.18 6.73153C183.035 7.15276 183.562 7.95413 183.562 8.82057V65.8368C183.562 66.6925 183.049 67.4806 182.215 67.9092L159.923 79.3515C159.091 79.782 158.063 79.782 157.229 79.3515L134.941 67.9092C134.108 67.4806 133.595 66.692 133.595 65.8368ZM150.197 58.3226C150.197 58.5359 150.325 58.7331 150.532 58.8397L158.186 62.7605C158.394 62.8652 158.65 62.8652 158.858 62.7605L166.511 58.8397C166.719 58.7331 166.846 58.5359 166.846 58.3226V50.4664C166.846 50.2531 166.719 50.054 166.511 49.9493L158.86 46.0193C158.65 45.9126 158.394 45.9126 158.184 46.0193L150.53 49.9493C150.325 50.054 150.197 50.2531 150.197 50.4664V58.3226ZM248.659 40.5819L226.514 29.1508C225.681 28.7203 224.652 28.7188 223.818 29.1489L201.534 40.5819C200.702 41.009 200.19 41.7991 200.19 42.6543V65.5203C200.19 66.3808 200.71 67.1729 201.549 67.6L223.692 78.8138C224.508 79.2302 225.511 79.2316 226.331 78.8285L239.723 72.2116C240.148 71.9997 240.413 71.6039 240.415 71.1734C240.419 70.7429 240.161 70.3432 239.739 70.1279L217.317 58.6876C216.9 58.4743 216.641 58.078 216.641 57.6494V50.4845C216.641 50.0574 216.898 49.6616 217.315 49.4464L224.293 45.8691C224.708 45.6572 225.221 45.6572 225.636 45.8691L232.619 49.4464C233.036 49.6616 233.292 50.0579 233.292 50.4845V56.123C233.292 56.5501 233.55 56.9459 233.968 57.1592C234.385 57.371 234.897 57.371 235.314 57.1572L248.659 50.2614C249.491 49.8329 250 49.0447 250 48.191V42.6509C249.999 41.7971 249.491 41.0085 248.659 40.5819ZM68.1901 67.486L90.4699 78.9278C91.3043 79.3549 92.3291 79.3549 93.1635 78.9278L115.452 67.486C116.284 67.0574 116.796 66.2688 116.796 65.4136V42.5315C116.796 41.6778 116.283 40.8857 115.449 40.4591L93.1635 29.028C92.3291 28.5995 91.3043 28.5995 90.4715 29.028L68.1901 40.4591C67.3557 40.8862 66.8433 41.6783 66.8433 42.5315V65.4136C66.8433 66.2693 67.3562 67.0574 68.1901 67.486ZM200.923 120.266L132.216 84.9723C127.905 82.7879 122.123 82.7879 117.775 84.9723L49.0657 120.266C44.6141 122.545 41.8594 126.82 41.8594 131.399V201.884C41.8594 206.46 44.6141 210.741 49.0657 213.023L67.081 222.248C75.8108 226.067 78.9403 226.067 82.9097 226.067C95.8312 226.067 103.257 219.119 103.257 207.002V137.414C103.257 136.429 102.353 135.654 101.265 135.654H92.5515C91.4446 135.654 90.5557 136.429 90.5557 137.414V207.002C90.5557 212.374 84.3017 217.719 74.0903 213.186L55.2675 203.514C54.6042 203.194 54.1826 202.561 54.1826 201.884V131.399C54.1826 130.73 54.6042 130.064 55.2713 129.724L123.94 94.4914C124.576 94.1622 125.423 94.1622 126.056 94.4914L194.739 129.715C195.396 130.064 195.805 130.707 195.805 131.398V201.884C195.805 202.561 195.396 203.208 194.756 203.533L126.044 238.788C125.457 239.106 124.555 239.106 123.916 238.788L106.291 229.485C105.767 229.217 105.095 229.116 104.586 229.373C99.7076 231.834 98.7841 232.158 94.2142 233.568C93.0831 233.919 91.4127 234.522 94.835 236.22L117.776 248.286C119.974 249.417 122.474 250 124.983 250C127.528 250 130.02 249.418 132.218 248.286L200.925 213.022C205.374 210.721 208.143 206.46 208.143 201.884V131.399C208.142 126.82 205.373 122.554 200.923 120.266ZM148.913 195.161C128.409 195.161 123.899 190.582 122.388 181.518C122.213 180.55 121.28 179.829 120.162 179.829H110.144C108.902 179.829 107.906 180.711 107.906 181.82C107.906 193.417 115.008 207.252 148.914 207.252C173.464 207.252 187.541 198.661 187.541 183.655C187.541 168.775 176.229 164.818 152.421 162.016C128.359 159.185 125.914 157.726 125.914 152.717C125.914 148.589 127.985 143.07 145.807 143.07C161.723 143.07 167.591 146.119 170.004 155.652C170.215 156.55 171.135 157.205 172.176 157.205H182.233C182.857 157.205 183.45 156.967 183.872 156.572C184.297 156.154 184.523 155.61 184.464 155.039C182.908 138.61 170.625 130.955 145.807 130.955C123.714 130.955 110.539 139.243 110.539 153.134C110.539 168.209 123.649 172.378 144.846 174.237C170.215 176.45 172.184 179.744 172.184 184.181C172.184 191.881 165.236 195.161 148.913 195.161ZM225.351 49.19C225.193 49.1068 224.996 49.1068 224.837 49.19L220.562 51.3837C220.401 51.4654 220.303 51.6171 220.303 51.78V56.1729C220.303 56.3358 220.401 56.488 220.562 56.5692L224.837 58.7629C224.995 58.8446 225.192 58.8446 225.351 58.7629L229.63 56.5692C229.791 56.488 229.888 56.3358 229.888 56.1729V51.78C229.888 51.6171 229.791 51.4654 229.63 51.3837L225.351 49.19Z" fill="#0FC3E8"/>
</svg>
