<svg width="801" height="665" viewBox="0 0 801 665" fill="none" xmlns="http://www.w3.org/2000/svg">
<path d="M335.863 143.096H748.433C776.914 143.096 800.004 120.006 800.004 91.5252C800.004 63.0441 776.914 39.954 748.433 39.954H335.863C307.382 39.954 284.292 63.0441 284.292 91.5252C284.292 120.006 307.379 143.096 335.863 143.096Z" fill="#360745"/>
<path d="M748.433 280.62H335.863C307.382 280.62 284.292 303.71 284.292 332.191C284.292 360.672 307.382 383.762 335.863 383.762H748.433C776.914 383.762 800.004 360.672 800.004 332.191C800.004 303.71 776.914 280.62 748.433 280.62Z" fill="#360745"/>
<path d="M748.433 521.285H335.863C307.382 521.285 284.292 544.375 284.292 572.856C284.292 601.337 307.382 624.428 335.863 624.428H748.433C776.914 624.428 800.004 601.337 800.004 572.856C800.004 544.375 776.914 521.285 748.433 521.285Z" fill="#360745"/>
<path d="M167.731 291.154L133.388 286.162L118.03 255.04C113.684 246.239 104.724 240.666 94.9053 240.666C85.093 240.666 76.1265 246.239 71.7808 255.04L56.4194 286.162L22.0799 291.154C12.3673 292.563 4.29469 299.367 1.2623 308.702C-1.77008 318.036 0.760343 328.282 7.78434 335.134L32.6348 359.355L26.766 393.561C25.1054 403.235 29.0832 413.013 37.0218 418.782C41.5153 422.048 46.8306 423.709 52.1803 423.709C56.2819 423.709 60.4042 422.729 64.1757 420.749L94.8984 404.597L125.621 420.749C129.396 422.733 133.515 423.709 137.617 423.709C137.641 423.709 137.668 423.709 137.689 423.709C151.929 423.706 163.471 412.164 163.471 397.923C163.471 395.761 163.206 393.657 162.704 391.649L157.162 359.355L182.012 335.134C189.043 328.282 191.57 318.036 188.538 308.702C185.516 299.367 177.443 292.563 167.731 291.154Z" fill="#360745"/>
<path d="M167.731 50.4882L133.388 45.4961L118.03 14.3746C113.684 5.57313 104.724 0 94.9053 0C85.093 0 76.1265 5.57313 71.7808 14.3746L56.4194 45.4961L22.0799 50.4882C12.3673 51.8978 4.29469 58.7018 1.2623 68.0362C-1.77008 77.3706 0.760343 87.616 7.78434 94.4681L32.6348 118.689L26.766 152.895C25.1054 162.57 29.0832 172.348 37.0218 178.117C41.5153 181.383 46.8306 183.043 52.1803 183.043C56.2819 183.043 60.4042 182.064 64.1757 180.083L94.8984 163.931L125.621 180.083C129.396 182.067 133.515 183.043 137.617 183.043C137.641 183.043 137.668 183.043 137.689 183.043C151.929 183.043 163.471 171.498 163.471 157.258C163.471 155.095 163.206 152.991 162.704 150.983L157.162 118.689L182.012 94.4681C189.043 87.616 191.57 77.3706 188.538 68.0362C185.516 58.7018 177.443 51.8978 167.731 50.4882Z" fill="#360745"/>
<path d="M167.731 531.819L133.388 526.827L118.03 495.706C113.684 486.904 104.724 481.331 94.9053 481.331C85.093 481.331 76.1265 486.904 71.7808 495.706L56.4194 526.827L22.0799 531.819C12.3673 533.229 4.29469 540.033 1.2623 549.367C-1.77008 558.702 0.760343 568.947 7.78434 575.799L32.6348 600.021L26.766 634.226C25.1054 643.901 29.0832 653.679 37.0218 659.448C41.5153 662.714 46.8306 664.375 52.1803 664.375C56.2819 664.375 60.4042 663.395 64.1757 661.414L94.8984 645.262L125.621 661.414C129.396 663.398 133.515 664.375 137.617 664.375C137.641 664.375 137.668 664.375 137.689 664.375C151.929 664.371 163.471 652.83 163.471 638.589C163.471 636.426 163.206 634.322 162.704 632.315L157.162 600.021L182.012 575.799C189.043 568.947 191.57 558.702 188.538 549.367C185.516 540.033 177.443 533.229 167.731 531.819Z" fill="#360745"/>
</svg>
