<svg width="190" height="250" viewBox="0 0 190 250" fill="none" xmlns="http://www.w3.org/2000/svg">
<path d="M63.9636 168.549C57.6786 165.291 50.6991 163.605 43.6425 163.605C35.3442 163.597 26.8919 165.955 19.4884 170.83C13.1955 174.973 8.29044 180.512 5.00527 186.722C1.7122 192.948 1.94983e-05 199.845 1.94983e-05 206.833C-0.00787755 215.035 2.38295 223.397 7.3112 230.721C11.4912 236.947 17.0902 241.807 23.3753 245.057C29.6608 248.314 36.6403 250 43.7042 250C51.9947 250.008 60.447 247.65 67.8504 242.767C74.1434 238.632 79.0559 233.093 82.3336 226.875C85.6346 220.657 87.3389 213.76 87.3389 206.771C87.3389 198.562 84.9559 190.2 80.0277 182.876C75.8477 176.651 70.2492 171.799 63.9636 168.549ZM63.2001 216.957C61.5422 220.093 59.105 222.854 55.8889 224.976C52.0944 227.463 47.9069 228.623 43.7037 228.63C40.1254 228.63 36.5702 227.768 33.4006 226.12C30.2309 224.472 27.4393 222.076 25.2952 218.887C22.781 215.133 21.6088 210.99 21.6014 206.832C21.6014 203.3 22.473 199.782 24.1388 196.639C25.8046 193.503 28.226 190.749 31.45 188.628C35.2445 186.141 39.4319 184.974 43.6425 184.966C47.213 184.966 50.7686 185.829 53.9378 187.477C57.107 189.125 59.8917 191.528 62.0432 194.717C64.5574 198.463 65.7296 202.605 65.737 206.771C65.7375 210.304 64.8659 213.821 63.2001 216.957Z" fill="#0FC3E8"/>
<path d="M182.689 182.876C178.509 176.651 172.91 171.798 166.633 168.548C160.34 165.291 153.369 163.604 146.304 163.604C138.006 163.597 129.554 165.955 122.158 170.83C115.857 174.972 110.953 180.511 107.667 186.722C104.374 192.947 102.662 199.844 102.662 206.833C102.654 215.035 105.045 223.396 109.973 230.721C114.161 236.946 119.752 241.806 126.037 245.056C132.33 248.314 139.302 250 146.366 250C154.656 250.008 163.109 247.65 170.512 242.767C176.805 238.632 181.718 233.093 185.003 226.875C188.296 220.657 190 213.76 190 206.771C190.008 198.562 187.617 190.201 182.689 182.876ZM165.87 216.957C164.204 220.093 161.775 222.854 158.551 224.976C154.757 227.463 150.569 228.623 146.366 228.63C142.788 228.63 139.232 227.768 136.063 226.12C132.893 224.472 130.101 222.076 127.957 218.887C125.443 215.133 124.271 210.99 124.264 206.832C124.264 203.3 125.135 199.782 126.801 196.639C128.467 193.503 130.896 190.749 134.12 188.628C137.906 186.141 142.094 184.974 146.305 184.966C149.875 184.966 153.431 185.836 156.6 187.477C159.778 189.125 162.561 191.528 164.705 194.717C167.22 198.463 168.392 202.605 168.399 206.771C168.399 210.304 167.528 213.821 165.87 216.957Z" fill="#0FC3E8"/>
<path d="M180.468 0L95.0044 125.374L9.54056 0C-8.1972 119.675 95.0044 160.996 95.0044 160.996C95.0044 160.996 198.206 119.675 180.468 0Z" fill="#0FC3E8"/>
</svg>
