<svg width="481" height="289" viewBox="0 0 481 289" fill="none" xmlns="http://www.w3.org/2000/svg">
<path d="M279.882 150.959C275.353 163.798 270.993 176.302 266.311 189.728C254.956 189.728 242.17 189.839 229.393 189.541C228.225 189.514 226.682 187.04 226.05 185.415C217.834 164.317 205.312 146.368 187.11 132.747C163.527 115.1 136.696 107.396 107.464 108.794C65.2881 110.81 30.6784 128.387 3.73992 160.961C3.16769 161.653 2.55595 162.312 1.13857 163.924C1.13857 150.506 1.01254 138.266 1.29313 126.036C1.32947 124.452 3.25858 122.692 4.6619 121.392C22.0853 105.255 42.3621 94.2376 65.2446 88.0007C101.093 78.2299 136.508 79.7945 171.119 93.1874C200.03 104.375 226.411 123.556 245.05 159.04C246.991 154.732 248.731 150.721 250.59 146.767C271.785 101.684 306.186 71.3772 353.539 56.2928C396.169 42.7126 438.556 45.3218 480.665 60.3148C480.665 69.5849 480.665 78.7005 480.665 88.0927C479.744 87.9922 478.883 88.0952 478.197 87.7953C446.757 74.0329 414.168 70.3295 380.505 76.9326C344.162 84.0614 313.899 101.367 291.658 131.443C287.233 137.426 283.891 144.209 279.882 150.959Z" fill="#0FC3E8"/>
<path d="M195.306 83.6689C163.914 67.3094 130.895 60.988 96.0158 63.6113C70.413 65.537 46.23 72.2003 23.8438 84.8171C16.2265 89.1102 9.07321 94.2267 1.12816 99.34C1.12816 88.7699 1.02684 78.3749 1.27473 67.9883C1.30142 66.8699 3.19206 65.5228 4.49542 64.749C25.02 52.5633 47.1469 44.6077 70.5671 40.2785C98.9124 35.039 127.247 35.3456 155.434 41.4173C183.441 47.45 209.197 58.6353 232.235 75.8267C233.294 76.6165 234.421 77.3136 235.418 77.9873C303.328 5.15613 386.266 -12.8854 480.595 9.31588C480.595 20.0606 480.595 29.9637 480.595 39.3475C382.636 13.7091 301.42 35.8123 240.687 120.753C228.523 105.953 213.487 93.1565 195.306 83.6689Z" fill="#0FC3E8"/>
<mask id="path-3-outside-1_16_53" maskUnits="userSpaceOnUse" x="0" y="233" width="480" height="56" fill="black">
<rect fill="white" y="233" width="480" height="56"/>
<path d="M2 235.957C2.32366 235.957 2.83073 235.969 3.5212 235.995C4.23325 235.995 4.99925 236.008 5.81919 236.033C6.63912 236.033 7.45906 236.046 8.279 236.071C9.12052 236.071 9.84336 236.071 10.4475 236.071C11.289 236.071 12.109 236.071 12.9073 236.071C13.7273 236.071 14.558 236.071 15.3995 236.071C16.241 236.046 17.1149 236.033 18.0212 236.033C18.949 236.008 19.9308 235.982 20.9665 235.957V242.767H19.8984C19.1216 242.767 18.5174 242.895 18.0859 243.15C17.6759 243.38 17.3631 243.699 17.1473 244.107C16.9531 244.489 16.8344 244.948 16.7913 245.484C16.7481 245.994 16.7265 246.517 16.7265 247.053V266.988C16.7265 269.029 16.856 270.84 17.1149 272.422C17.3954 273.978 17.8593 275.291 18.5067 276.363C19.154 277.409 20.0279 278.212 21.1283 278.773C22.2287 279.309 23.6097 279.577 25.2711 279.577C26.7816 279.577 28.033 279.322 29.0256 278.812C30.0182 278.301 30.8057 277.536 31.3883 276.516C31.9709 275.495 32.3809 274.233 32.6182 272.728C32.8556 271.223 32.9742 269.475 32.9742 267.486V246.747C32.9742 246.262 32.9527 245.79 32.9095 245.331C32.8664 244.846 32.7369 244.413 32.5211 244.03C32.3053 243.648 31.9709 243.341 31.5178 243.112C31.0862 242.882 30.4821 242.767 29.7053 242.767H28.5401V235.957C28.8206 235.982 29.3169 236.008 30.0289 236.033C30.741 236.033 31.5286 236.033 32.3917 236.033C33.2547 236.033 34.1178 236.033 34.9809 236.033C35.844 236.033 36.5884 236.033 37.2142 236.033C37.5594 236.033 38.0125 236.033 38.5736 236.033C39.1346 236.033 39.7495 236.033 40.4184 236.033C41.1089 236.008 41.8209 235.995 42.5546 235.995C43.3098 235.969 44.0326 235.957 44.7231 235.957V242.767H43.2019C42.4467 242.767 41.8749 242.921 41.4865 243.227C41.1197 243.507 40.85 243.864 40.6773 244.298C40.5263 244.732 40.4508 245.204 40.4508 245.714C40.4508 246.198 40.4508 246.645 40.4508 247.053V266.873C40.4508 270.164 40.1379 273.072 39.5122 275.597C38.8864 278.097 37.8939 280.202 36.5345 281.911C35.1967 283.595 33.4489 284.87 31.2912 285.737C29.1551 286.579 26.5658 287 23.5234 287C20.4594 287 17.827 286.605 15.6261 285.814C13.4468 284.998 11.6559 283.773 10.2533 282.141C8.87238 280.482 7.85824 278.416 7.21092 275.942C6.5636 273.442 6.23994 270.508 6.23994 267.141V245.714C6.23994 245.433 6.21837 245.127 6.17521 244.795C6.13206 244.438 6.01338 244.119 5.81919 243.839C5.62499 243.533 5.3337 243.278 4.9453 243.074C4.57849 242.87 4.06063 242.767 3.39174 242.767H2V235.957Z"/>
<path d="M66.4471 235.957C66.5766 235.957 66.8355 235.957 67.2239 235.957C67.6123 235.957 68.0654 235.957 68.5833 235.957C69.1227 235.957 69.6837 235.957 70.2663 235.957C70.8705 235.957 71.4315 235.957 71.9494 235.957C72.4888 235.957 72.9527 235.957 73.3411 235.957C73.7511 235.957 74.0208 235.957 74.1502 235.957L92.6312 272.804H92.696L92.6636 245.982C92.6636 245.267 92.6204 244.706 92.5341 244.298C92.4478 243.864 92.286 243.533 92.0486 243.303C91.8113 243.074 91.4768 242.933 91.0453 242.882C90.6353 242.806 90.0959 242.767 89.427 242.767H87.9382V235.957C89.5565 235.957 91.0021 235.969 92.2752 235.995C93.5698 236.02 94.7458 236.033 95.8031 236.033C95.9541 236.033 96.1915 236.033 96.5151 236.033C96.8604 236.033 97.2488 236.033 97.6803 236.033C98.1119 236.033 98.5758 236.033 99.0721 236.033C99.5683 236.008 100.065 235.995 100.561 235.995C101.726 235.995 102.999 235.982 104.38 235.957V242.767H102.729C101.996 242.767 101.435 242.87 101.046 243.074C100.658 243.252 100.367 243.52 100.172 243.877C99.9999 244.209 99.892 244.63 99.8488 245.14C99.8273 245.624 99.8165 246.16 99.8165 246.747C99.8165 246.798 99.8165 247.41 99.8165 248.584C99.8165 249.757 99.8165 251.287 99.8165 253.175C99.8165 255.037 99.8165 257.155 99.8165 259.527C99.8165 261.899 99.8165 264.323 99.8165 266.797V286.541H89.1681L69.7161 248.201H69.6514L69.6837 275.827C69.6837 276.618 69.7161 277.243 69.7808 277.702C69.8671 278.136 70.029 278.467 70.2663 278.697C70.5253 278.926 70.8705 279.067 71.302 279.118C71.7336 279.169 72.3054 279.194 73.0174 279.194H74.6034V286.005C73.3735 286.005 72.122 285.992 70.8489 285.967C69.5974 285.941 68.141 285.929 66.4795 285.929C65.5517 285.929 64.7102 285.941 63.955 285.967C63.1998 285.967 62.4769 285.967 61.7864 285.967C61.1175 285.967 60.4594 285.98 59.8121 286.005C59.1648 286.005 58.4959 286.005 57.8054 286.005V279.194H59.4885C60.2868 279.194 60.891 279.105 61.301 278.926C61.7325 278.748 62.0454 278.48 62.2396 278.123C62.4338 277.766 62.5416 277.319 62.5632 276.784C62.5848 276.222 62.5956 275.572 62.5956 274.832V246.632C62.5956 245.867 62.574 245.242 62.5309 244.757C62.4877 244.247 62.3582 243.852 62.1425 243.571C61.9483 243.265 61.6462 243.061 61.2362 242.959C60.8263 242.831 60.2652 242.767 59.5532 242.767H57.8702V235.957H66.4471Z"/>
<path d="M118.466 235.957C119.437 235.982 120.321 236.008 121.12 236.033C121.918 236.033 122.663 236.033 123.353 236.033C124.043 236.033 124.702 236.033 125.327 236.033C125.975 236.033 126.611 236.033 127.237 236.033C128.532 236.033 129.675 236.033 130.668 236.033C131.682 236.033 132.61 236.033 133.451 236.033C134.314 236.033 135.134 236.033 135.911 236.033C136.709 236.008 137.54 235.982 138.403 235.957V242.767H137.044C136.267 242.767 135.652 242.857 135.199 243.035C134.767 243.188 134.433 243.431 134.196 243.762C133.98 244.068 133.84 244.451 133.775 244.91C133.732 245.344 133.71 245.841 133.71 246.403V275.712C133.71 276.401 133.732 276.975 133.775 277.434C133.818 277.868 133.947 278.225 134.163 278.506C134.379 278.761 134.703 278.939 135.134 279.041C135.587 279.143 136.224 279.194 137.044 279.194H138.403V286.005C137.605 286.005 136.828 286.005 136.073 286.005C135.318 285.98 134.541 285.967 133.742 285.967C132.966 285.967 132.124 285.967 131.218 285.967C130.333 285.941 129.362 285.929 128.305 285.929C126.32 285.929 124.561 285.941 123.029 285.967C121.519 285.992 119.998 286.005 118.466 286.005V279.194H119.76C120.602 279.194 121.249 279.105 121.702 278.926C122.155 278.748 122.49 278.48 122.706 278.123C122.921 277.766 123.04 277.319 123.062 276.784C123.105 276.248 123.126 275.623 123.126 274.909V247.168C123.126 246.428 123.105 245.79 123.062 245.255C123.019 244.693 122.889 244.234 122.673 243.877C122.458 243.494 122.123 243.214 121.67 243.035C121.217 242.857 120.58 242.767 119.76 242.767H118.466V235.957Z"/>
<path d="M180.453 235.957C182.33 241.977 184.046 247.461 185.599 252.41C186.268 254.527 186.926 256.632 187.574 258.723C188.221 260.79 188.814 262.703 189.354 264.463C189.915 266.197 190.389 267.69 190.778 268.94C191.166 270.164 191.425 270.98 191.555 271.389C192.094 273.149 192.515 274.539 192.817 275.559C193.119 276.58 193.453 277.358 193.82 277.893C194.209 278.429 194.694 278.786 195.277 278.965C195.859 279.118 196.701 279.207 197.801 279.233V286.005C196.528 286.005 195.287 285.992 194.079 285.967C192.892 285.941 191.511 285.929 189.936 285.929C188.081 285.929 186.257 285.941 184.466 285.967C182.697 285.967 180.777 285.98 178.705 286.005V279.692C178.792 279.692 178.91 279.692 179.061 279.692C179.234 279.692 179.407 279.692 179.579 279.692C179.752 279.692 179.914 279.692 180.065 279.692C180.216 279.666 180.324 279.653 180.388 279.653C181.424 279.602 182.136 279.475 182.524 279.271C182.913 279.067 183.107 278.71 183.107 278.199C183.107 277.893 183.053 277.523 182.945 277.09C182.837 276.631 182.697 276.108 182.524 275.521L180.453 268.289H165.532C165.468 268.57 165.317 269.118 165.079 269.935C164.842 270.725 164.583 271.58 164.302 272.498C164.044 273.416 163.806 274.271 163.59 275.062C163.375 275.853 163.245 276.35 163.202 276.554C163.094 276.911 163.008 277.243 162.943 277.549C162.9 277.83 162.878 278.059 162.878 278.238C162.878 278.799 163.019 279.182 163.299 279.386C163.601 279.564 164.097 279.666 164.788 279.692C164.853 279.692 164.993 279.704 165.209 279.73C165.424 279.73 165.662 279.73 165.921 279.73C166.18 279.73 166.417 279.73 166.633 279.73C166.87 279.73 167.032 279.73 167.118 279.73V286.005C165.802 286.005 164.475 285.992 163.137 285.967C161.799 285.941 160.354 285.929 158.8 285.929C158.045 285.929 157.333 285.929 156.664 285.929C156.017 285.929 155.38 285.941 154.754 285.967C154.129 285.967 153.492 285.98 152.845 286.005C152.198 286.005 151.507 286.005 150.773 286.005V279.194C151.55 279.092 152.176 279.003 152.651 278.926C153.147 278.85 153.557 278.71 153.881 278.506C154.204 278.276 154.485 277.957 154.722 277.549C154.959 277.115 155.208 276.516 155.467 275.751C155.639 275.266 155.909 274.475 156.276 273.378C156.643 272.281 157.063 270.993 157.538 269.514C158.034 268.034 158.574 266.427 159.156 264.692C159.739 262.932 160.332 261.147 160.936 259.336C161.541 257.524 162.134 255.739 162.717 253.979C163.299 252.219 163.839 250.599 164.335 249.119C164.831 247.614 165.263 246.313 165.629 245.216C165.996 244.094 166.266 243.278 166.439 242.767L167.927 235.957H180.453ZM167.021 263.315H178.964L173.171 243.188L173.106 243.15L167.021 263.315Z"/>
<path d="M242.084 249.923H235.87C235.784 249.591 235.708 249.272 235.644 248.966C235.6 248.66 235.546 248.354 235.482 248.048C235.115 245.778 234.295 244.043 233.022 242.844C231.749 241.62 229.818 241.007 227.228 241.007C226.171 241.007 225.222 241.16 224.38 241.467C223.539 241.773 222.816 242.206 222.212 242.767C221.629 243.329 221.176 243.992 220.852 244.757C220.529 245.522 220.367 246.377 220.367 247.321C220.367 248.775 220.744 249.974 221.5 250.918C222.255 251.861 223.28 252.716 224.574 253.481C225.869 254.221 227.369 254.948 229.073 255.662C230.778 256.351 232.58 257.18 234.478 258.149C235.73 258.762 236.906 259.489 238.006 260.33C239.128 261.147 240.11 262.116 240.952 263.238C241.793 264.335 242.451 265.623 242.926 267.103C243.422 268.557 243.67 270.228 243.67 272.116C243.67 274.131 243.336 276.044 242.667 277.855C241.998 279.641 241.038 281.222 239.786 282.6C238.556 283.952 237.046 285.023 235.255 285.814C233.464 286.605 231.447 287 229.203 287C228.124 287 227.045 286.885 225.966 286.656C224.909 286.452 223.884 286.145 222.891 285.737C221.92 285.329 221.003 284.832 220.14 284.245C219.299 283.658 218.554 282.995 217.907 282.255V286.005H210.819V270.47H217.033C217.163 271.133 217.292 271.746 217.422 272.307C217.637 273.608 217.95 274.768 218.36 275.789C218.792 276.784 219.363 277.625 220.076 278.314C220.788 279.003 221.661 279.526 222.697 279.883C223.733 280.24 224.974 280.419 226.419 280.419C227.52 280.419 228.512 280.266 229.397 279.96C230.303 279.653 231.08 279.22 231.727 278.659C232.375 278.072 232.871 277.358 233.216 276.516C233.561 275.649 233.734 274.679 233.734 273.608C233.734 272.154 233.356 270.942 232.601 269.973C231.868 268.978 230.886 268.111 229.656 267.371C228.448 266.631 227.077 265.955 225.545 265.343C224.013 264.705 222.46 264.004 220.885 263.238C217.475 261.58 214.94 259.629 213.279 257.384C211.639 255.139 210.819 252.423 210.819 249.234C210.819 247.219 211.132 245.344 211.757 243.609C212.405 241.875 213.333 240.37 214.541 239.094C215.771 237.819 217.26 236.824 219.007 236.11C220.755 235.37 222.751 235 224.995 235C226.937 235 228.847 235.281 230.724 235.842C232.623 236.403 234.403 237.462 236.064 239.018C236.064 238.661 236.054 238.303 236.032 237.946C236.032 237.589 236.032 237.258 236.032 236.951V235.918C236.161 235.918 236.442 235.918 236.873 235.918C237.327 235.918 237.844 235.931 238.427 235.957C239.031 235.957 239.657 235.957 240.304 235.957C240.973 235.957 241.567 235.957 242.084 235.957V249.923Z"/>
<path d="M290.866 249.923H284.652C284.566 249.591 284.49 249.272 284.426 248.966C284.382 248.66 284.328 248.354 284.264 248.048C283.897 245.778 283.077 244.043 281.804 242.844C280.531 241.62 278.6 241.007 276.01 241.007C274.953 241.007 274.004 241.16 273.162 241.467C272.321 241.773 271.598 242.206 270.994 242.767C270.411 243.329 269.958 243.992 269.634 244.757C269.311 245.522 269.149 246.377 269.149 247.321C269.149 248.775 269.526 249.974 270.282 250.918C271.037 251.861 272.062 252.716 273.356 253.481C274.651 254.221 276.151 254.948 277.855 255.662C279.56 256.351 281.362 257.18 283.26 258.149C284.512 258.762 285.688 259.489 286.788 260.33C287.91 261.147 288.892 262.116 289.734 263.238C290.575 264.335 291.233 265.623 291.708 267.103C292.204 268.557 292.452 270.228 292.452 272.116C292.452 274.131 292.118 276.044 291.449 277.855C290.78 279.641 289.82 281.222 288.568 282.6C287.338 283.952 285.828 285.023 284.037 285.814C282.246 286.605 280.229 287 277.985 287C276.906 287 275.827 286.885 274.748 286.656C273.691 286.452 272.666 286.145 271.673 285.737C270.702 285.329 269.785 284.832 268.922 284.245C268.081 283.658 267.336 282.995 266.689 282.255V286.005H259.601V270.47H265.815C265.945 271.133 266.074 271.746 266.204 272.307C266.419 273.608 266.732 274.768 267.142 275.789C267.574 276.784 268.145 277.625 268.858 278.314C269.57 279.003 270.443 279.526 271.479 279.883C272.515 280.24 273.756 280.419 275.201 280.419C276.302 280.419 277.294 280.266 278.179 279.96C279.085 279.653 279.862 279.22 280.509 278.659C281.157 278.072 281.653 277.358 281.998 276.516C282.343 275.649 282.516 274.679 282.516 273.608C282.516 272.154 282.138 270.942 281.383 269.973C280.65 268.978 279.668 268.111 278.438 267.371C277.23 266.631 275.859 265.955 274.327 265.343C272.795 264.705 271.242 264.004 269.667 263.238C266.257 261.58 263.722 259.629 262.061 257.384C260.421 255.139 259.601 252.423 259.601 249.234C259.601 247.219 259.914 245.344 260.539 243.609C261.187 241.875 262.115 240.37 263.323 239.094C264.553 237.819 266.042 236.824 267.789 236.11C269.537 235.37 271.533 235 273.777 235C275.719 235 277.629 235.281 279.506 235.842C281.405 236.403 283.185 237.462 284.846 239.018C284.846 238.661 284.836 238.303 284.814 237.946C284.814 237.589 284.814 237.258 284.814 236.951V235.918C284.943 235.918 285.224 235.918 285.655 235.918C286.109 235.918 286.626 235.931 287.209 235.957C287.813 235.957 288.439 235.957 289.086 235.957C289.755 235.957 290.349 235.957 290.866 235.957V249.923Z"/>
<path d="M344.406 235.957V249.884H338.095V248.316C338.095 247.091 337.987 246.147 337.771 245.484C337.555 244.821 337.253 244.349 336.865 244.068C336.477 243.762 336.002 243.584 335.441 243.533C334.88 243.482 334.254 243.456 333.564 243.456H322.721V257.346H329.097C329.572 257.346 329.971 257.32 330.295 257.269C330.64 257.193 330.931 257.04 331.169 256.81C331.406 256.581 331.6 256.223 331.751 255.739C331.924 255.254 332.064 254.591 332.172 253.749H334.923V267.294H332.139C332.01 266.478 331.87 265.828 331.719 265.343C331.568 264.858 331.373 264.501 331.136 264.272C330.899 264.016 330.618 263.863 330.295 263.812C329.971 263.736 329.572 263.698 329.097 263.698H322.721V278.582H334.017C334.815 278.582 335.484 278.518 336.023 278.391C336.563 278.263 336.994 277.983 337.318 277.549C337.663 277.115 337.911 276.503 338.062 275.712C338.213 274.896 338.289 273.812 338.289 272.46V271.235H344.536V286.005H307.412V279.194H309.807C310.368 279.194 310.8 279.079 311.102 278.85C311.425 278.62 311.663 278.301 311.814 277.893C311.986 277.485 312.083 277.026 312.105 276.516C312.148 276.006 312.17 275.457 312.17 274.87V247.321C312.17 246.76 312.159 246.198 312.137 245.637C312.116 245.076 312.029 244.579 311.878 244.145C311.727 243.711 311.49 243.367 311.166 243.112C310.864 242.831 310.411 242.691 309.807 242.691H307.541V235.957H344.406Z"/>
<path d="M359.884 235.957C360.035 235.957 360.412 235.969 361.016 235.995C361.642 235.995 362.343 236.008 363.12 236.033C363.897 236.033 364.674 236.046 365.451 236.071C366.249 236.071 366.907 236.071 367.425 236.071C368.461 236.071 369.475 236.071 370.467 236.071C371.46 236.071 372.474 236.071 373.51 236.071C374.545 236.046 375.624 236.033 376.746 236.033C377.868 236.008 379.077 235.982 380.371 235.957V242.767H378.267C377.534 242.767 376.962 242.895 376.552 243.15C376.142 243.405 375.829 243.737 375.613 244.145C375.419 244.553 375.301 245.025 375.257 245.561C375.214 246.071 375.193 246.594 375.193 247.13V262.971C375.193 267.537 375.203 272.702 375.225 278.467H385.679C386.499 278.467 387.136 278.263 387.589 277.855C388.064 277.447 388.409 276.847 388.625 276.057C388.862 275.24 389.013 274.246 389.078 273.072C389.142 271.899 389.175 270.547 389.175 269.016H395.098V286.005H359.884V279.194H361.405C362.182 279.194 362.786 279.079 363.217 278.85C363.67 278.62 363.994 278.314 364.188 277.932C364.404 277.549 364.534 277.09 364.577 276.554C364.62 276.018 364.641 275.444 364.641 274.832V248.163V246.67C364.641 246.16 364.609 245.675 364.544 245.216C364.48 244.732 364.339 244.311 364.124 243.954C363.908 243.597 363.584 243.316 363.153 243.112C362.721 242.882 362.138 242.767 361.405 242.767H359.884V235.957Z"/>
<path d="M414.912 246.096C414.977 246.351 415.15 246.951 415.43 247.895C415.732 248.813 416.099 249.961 416.531 251.338C416.984 252.716 417.48 254.259 418.019 255.968C418.559 257.652 419.109 259.374 419.67 261.134C420.231 262.894 420.781 264.629 421.321 266.338C421.882 268.021 422.378 269.552 422.81 270.929C423.263 272.307 423.629 273.468 423.91 274.411C424.212 275.33 424.406 275.904 424.493 276.133L433.523 246.211C433.631 245.803 433.717 245.446 433.782 245.14C433.868 244.834 433.911 244.579 433.911 244.375C433.911 243.737 433.652 243.329 433.134 243.15C432.638 242.972 431.85 242.857 430.772 242.806C430.664 242.806 430.437 242.806 430.092 242.806C429.768 242.806 429.552 242.793 429.445 242.767V235.957C430.696 235.982 431.872 235.995 432.972 235.995C433.426 235.995 433.89 236.008 434.364 236.033C434.839 236.033 435.281 236.033 435.691 236.033C436.123 236.033 436.511 236.033 436.856 236.033C437.202 236.033 437.471 236.033 437.666 236.033C438.895 236.033 440.147 236.033 441.42 236.033C442.693 236.033 444.085 236.008 445.595 235.957V242.767C444.689 242.767 443.945 242.933 443.362 243.265C442.801 243.571 442.294 244.094 441.841 244.834C441.409 245.573 440.988 246.556 440.578 247.78C440.19 248.979 439.715 250.471 439.154 252.257L428.215 286.579H418.473L405.397 248.086C405.095 247.219 404.814 246.454 404.555 245.79C404.318 245.127 404.016 244.579 403.649 244.145C403.304 243.686 402.872 243.341 402.354 243.112C401.836 242.882 401.168 242.767 400.348 242.767V235.957C400.52 235.957 400.865 235.969 401.383 235.995C401.923 235.995 402.516 236.008 403.163 236.033C403.832 236.033 404.501 236.046 405.17 236.071C405.839 236.071 406.411 236.071 406.885 236.071C407.166 236.071 407.554 236.071 408.051 236.071C408.547 236.071 409.097 236.071 409.701 236.071C410.327 236.071 410.996 236.071 411.708 236.071C412.42 236.046 413.121 236.033 413.812 236.033C415.452 236.008 417.21 235.982 419.087 235.957V242.767C418.462 242.793 417.879 242.818 417.34 242.844C416.8 242.87 416.326 242.946 415.916 243.074C415.527 243.176 415.214 243.354 414.977 243.609C414.761 243.839 414.653 244.183 414.653 244.642C414.653 244.821 414.664 245.038 414.686 245.293C414.729 245.522 414.804 245.79 414.912 246.096Z"/>
<path d="M458.063 235.957C459.034 235.982 459.918 236.008 460.717 236.033C461.515 236.033 462.259 236.033 462.95 236.033C463.64 236.033 464.298 236.033 464.924 236.033C465.571 236.033 466.208 236.033 466.834 236.033C468.128 236.033 469.272 236.033 470.265 236.033C471.279 236.033 472.206 236.033 473.048 236.033C473.911 236.033 474.731 236.033 475.508 236.033C476.306 236.008 477.137 235.982 478 235.957V242.767H476.641C475.864 242.767 475.249 242.857 474.796 243.035C474.364 243.188 474.03 243.431 473.792 243.762C473.577 244.068 473.436 244.451 473.372 244.91C473.329 245.344 473.307 245.841 473.307 246.403V275.712C473.307 276.401 473.329 276.975 473.372 277.434C473.415 277.868 473.544 278.225 473.76 278.506C473.976 278.761 474.299 278.939 474.731 279.041C475.184 279.143 475.821 279.194 476.641 279.194H478V286.005C477.202 286.005 476.425 286.005 475.67 286.005C474.914 285.98 474.138 285.967 473.339 285.967C472.563 285.967 471.721 285.967 470.815 285.967C469.93 285.941 468.959 285.929 467.902 285.929C465.917 285.929 464.158 285.941 462.626 285.967C461.116 285.992 459.595 286.005 458.063 286.005V279.194H459.357C460.199 279.194 460.846 279.105 461.299 278.926C461.752 278.748 462.087 278.48 462.302 278.123C462.518 277.766 462.637 277.319 462.659 276.784C462.702 276.248 462.723 275.623 462.723 274.909V247.168C462.723 246.428 462.702 245.79 462.659 245.255C462.615 244.693 462.486 244.234 462.27 243.877C462.054 243.494 461.72 243.214 461.267 243.035C460.814 242.857 460.177 242.767 459.357 242.767H458.063V235.957Z"/>
</mask>
<path d="M2 235.957C2.32366 235.957 2.83073 235.969 3.5212 235.995C4.23325 235.995 4.99925 236.008 5.81919 236.033C6.63912 236.033 7.45906 236.046 8.279 236.071C9.12052 236.071 9.84336 236.071 10.4475 236.071C11.289 236.071 12.109 236.071 12.9073 236.071C13.7273 236.071 14.558 236.071 15.3995 236.071C16.241 236.046 17.1149 236.033 18.0212 236.033C18.949 236.008 19.9308 235.982 20.9665 235.957V242.767H19.8984C19.1216 242.767 18.5174 242.895 18.0859 243.15C17.6759 243.38 17.3631 243.699 17.1473 244.107C16.9531 244.489 16.8344 244.948 16.7913 245.484C16.7481 245.994 16.7265 246.517 16.7265 247.053V266.988C16.7265 269.029 16.856 270.84 17.1149 272.422C17.3954 273.978 17.8593 275.291 18.5067 276.363C19.154 277.409 20.0279 278.212 21.1283 278.773C22.2287 279.309 23.6097 279.577 25.2711 279.577C26.7816 279.577 28.033 279.322 29.0256 278.812C30.0182 278.301 30.8057 277.536 31.3883 276.516C31.9709 275.495 32.3809 274.233 32.6182 272.728C32.8556 271.223 32.9742 269.475 32.9742 267.486V246.747C32.9742 246.262 32.9527 245.79 32.9095 245.331C32.8664 244.846 32.7369 244.413 32.5211 244.03C32.3053 243.648 31.9709 243.341 31.5178 243.112C31.0862 242.882 30.4821 242.767 29.7053 242.767H28.5401V235.957C28.8206 235.982 29.3169 236.008 30.0289 236.033C30.741 236.033 31.5286 236.033 32.3917 236.033C33.2547 236.033 34.1178 236.033 34.9809 236.033C35.844 236.033 36.5884 236.033 37.2142 236.033C37.5594 236.033 38.0125 236.033 38.5736 236.033C39.1346 236.033 39.7495 236.033 40.4184 236.033C41.1089 236.008 41.8209 235.995 42.5546 235.995C43.3098 235.969 44.0326 235.957 44.7231 235.957V242.767H43.2019C42.4467 242.767 41.8749 242.921 41.4865 243.227C41.1197 243.507 40.85 243.864 40.6773 244.298C40.5263 244.732 40.4508 245.204 40.4508 245.714C40.4508 246.198 40.4508 246.645 40.4508 247.053V266.873C40.4508 270.164 40.1379 273.072 39.5122 275.597C38.8864 278.097 37.8939 280.202 36.5345 281.911C35.1967 283.595 33.4489 284.87 31.2912 285.737C29.1551 286.579 26.5658 287 23.5234 287C20.4594 287 17.827 286.605 15.6261 285.814C13.4468 284.998 11.6559 283.773 10.2533 282.141C8.87238 280.482 7.85824 278.416 7.21092 275.942C6.5636 273.442 6.23994 270.508 6.23994 267.141V245.714C6.23994 245.433 6.21837 245.127 6.17521 244.795C6.13206 244.438 6.01338 244.119 5.81919 243.839C5.62499 243.533 5.3337 243.278 4.9453 243.074C4.57849 242.87 4.06063 242.767 3.39174 242.767H2V235.957Z" fill="#0FC3E8"/>
<path d="M66.4471 235.957C66.5766 235.957 66.8355 235.957 67.2239 235.957C67.6123 235.957 68.0654 235.957 68.5833 235.957C69.1227 235.957 69.6837 235.957 70.2663 235.957C70.8705 235.957 71.4315 235.957 71.9494 235.957C72.4888 235.957 72.9527 235.957 73.3411 235.957C73.7511 235.957 74.0208 235.957 74.1502 235.957L92.6312 272.804H92.696L92.6636 245.982C92.6636 245.267 92.6204 244.706 92.5341 244.298C92.4478 243.864 92.286 243.533 92.0486 243.303C91.8113 243.074 91.4768 242.933 91.0453 242.882C90.6353 242.806 90.0959 242.767 89.427 242.767H87.9382V235.957C89.5565 235.957 91.0021 235.969 92.2752 235.995C93.5698 236.02 94.7458 236.033 95.8031 236.033C95.9541 236.033 96.1915 236.033 96.5151 236.033C96.8604 236.033 97.2488 236.033 97.6803 236.033C98.1119 236.033 98.5758 236.033 99.0721 236.033C99.5683 236.008 100.065 235.995 100.561 235.995C101.726 235.995 102.999 235.982 104.38 235.957V242.767H102.729C101.996 242.767 101.435 242.87 101.046 243.074C100.658 243.252 100.367 243.52 100.172 243.877C99.9999 244.209 99.892 244.63 99.8488 245.14C99.8273 245.624 99.8165 246.16 99.8165 246.747C99.8165 246.798 99.8165 247.41 99.8165 248.584C99.8165 249.757 99.8165 251.287 99.8165 253.175C99.8165 255.037 99.8165 257.155 99.8165 259.527C99.8165 261.899 99.8165 264.323 99.8165 266.797V286.541H89.1681L69.7161 248.201H69.6514L69.6837 275.827C69.6837 276.618 69.7161 277.243 69.7808 277.702C69.8671 278.136 70.029 278.467 70.2663 278.697C70.5253 278.926 70.8705 279.067 71.302 279.118C71.7336 279.169 72.3054 279.194 73.0174 279.194H74.6034V286.005C73.3735 286.005 72.122 285.992 70.8489 285.967C69.5974 285.941 68.141 285.929 66.4795 285.929C65.5517 285.929 64.7102 285.941 63.955 285.967C63.1998 285.967 62.4769 285.967 61.7864 285.967C61.1175 285.967 60.4594 285.98 59.8121 286.005C59.1648 286.005 58.4959 286.005 57.8054 286.005V279.194H59.4885C60.2868 279.194 60.891 279.105 61.301 278.926C61.7325 278.748 62.0454 278.48 62.2396 278.123C62.4338 277.766 62.5416 277.319 62.5632 276.784C62.5848 276.222 62.5956 275.572 62.5956 274.832V246.632C62.5956 245.867 62.574 245.242 62.5309 244.757C62.4877 244.247 62.3582 243.852 62.1425 243.571C61.9483 243.265 61.6462 243.061 61.2362 242.959C60.8263 242.831 60.2652 242.767 59.5532 242.767H57.8702V235.957H66.4471Z" fill="#0FC3E8"/>
<path d="M118.466 235.957C119.437 235.982 120.321 236.008 121.12 236.033C121.918 236.033 122.663 236.033 123.353 236.033C124.043 236.033 124.702 236.033 125.327 236.033C125.975 236.033 126.611 236.033 127.237 236.033C128.532 236.033 129.675 236.033 130.668 236.033C131.682 236.033 132.61 236.033 133.451 236.033C134.314 236.033 135.134 236.033 135.911 236.033C136.709 236.008 137.54 235.982 138.403 235.957V242.767H137.044C136.267 242.767 135.652 242.857 135.199 243.035C134.767 243.188 134.433 243.431 134.196 243.762C133.98 244.068 133.84 244.451 133.775 244.91C133.732 245.344 133.71 245.841 133.71 246.403V275.712C133.71 276.401 133.732 276.975 133.775 277.434C133.818 277.868 133.947 278.225 134.163 278.506C134.379 278.761 134.703 278.939 135.134 279.041C135.587 279.143 136.224 279.194 137.044 279.194H138.403V286.005C137.605 286.005 136.828 286.005 136.073 286.005C135.318 285.98 134.541 285.967 133.742 285.967C132.966 285.967 132.124 285.967 131.218 285.967C130.333 285.941 129.362 285.929 128.305 285.929C126.32 285.929 124.561 285.941 123.029 285.967C121.519 285.992 119.998 286.005 118.466 286.005V279.194H119.76C120.602 279.194 121.249 279.105 121.702 278.926C122.155 278.748 122.49 278.48 122.706 278.123C122.921 277.766 123.04 277.319 123.062 276.784C123.105 276.248 123.126 275.623 123.126 274.909V247.168C123.126 246.428 123.105 245.79 123.062 245.255C123.019 244.693 122.889 244.234 122.673 243.877C122.458 243.494 122.123 243.214 121.67 243.035C121.217 242.857 120.58 242.767 119.76 242.767H118.466V235.957Z" fill="#0FC3E8"/>
<path d="M180.453 235.957C182.33 241.977 184.046 247.461 185.599 252.41C186.268 254.527 186.926 256.632 187.574 258.723C188.221 260.79 188.814 262.703 189.354 264.463C189.915 266.197 190.389 267.69 190.778 268.94C191.166 270.164 191.425 270.98 191.555 271.389C192.094 273.149 192.515 274.539 192.817 275.559C193.119 276.58 193.453 277.358 193.82 277.893C194.209 278.429 194.694 278.786 195.277 278.965C195.859 279.118 196.701 279.207 197.801 279.233V286.005C196.528 286.005 195.287 285.992 194.079 285.967C192.892 285.941 191.511 285.929 189.936 285.929C188.081 285.929 186.257 285.941 184.466 285.967C182.697 285.967 180.777 285.98 178.705 286.005V279.692C178.792 279.692 178.91 279.692 179.061 279.692C179.234 279.692 179.407 279.692 179.579 279.692C179.752 279.692 179.914 279.692 180.065 279.692C180.216 279.666 180.324 279.653 180.388 279.653C181.424 279.602 182.136 279.475 182.524 279.271C182.913 279.067 183.107 278.71 183.107 278.199C183.107 277.893 183.053 277.523 182.945 277.09C182.837 276.631 182.697 276.108 182.524 275.521L180.453 268.289H165.532C165.468 268.57 165.317 269.118 165.079 269.935C164.842 270.725 164.583 271.58 164.302 272.498C164.044 273.416 163.806 274.271 163.59 275.062C163.375 275.853 163.245 276.35 163.202 276.554C163.094 276.911 163.008 277.243 162.943 277.549C162.9 277.83 162.878 278.059 162.878 278.238C162.878 278.799 163.019 279.182 163.299 279.386C163.601 279.564 164.097 279.666 164.788 279.692C164.853 279.692 164.993 279.704 165.209 279.73C165.424 279.73 165.662 279.73 165.921 279.73C166.18 279.73 166.417 279.73 166.633 279.73C166.87 279.73 167.032 279.73 167.118 279.73V286.005C165.802 286.005 164.475 285.992 163.137 285.967C161.799 285.941 160.354 285.929 158.8 285.929C158.045 285.929 157.333 285.929 156.664 285.929C156.017 285.929 155.38 285.941 154.754 285.967C154.129 285.967 153.492 285.98 152.845 286.005C152.198 286.005 151.507 286.005 150.773 286.005V279.194C151.55 279.092 152.176 279.003 152.651 278.926C153.147 278.85 153.557 278.71 153.881 278.506C154.204 278.276 154.485 277.957 154.722 277.549C154.959 277.115 155.208 276.516 155.467 275.751C155.639 275.266 155.909 274.475 156.276 273.378C156.643 272.281 157.063 270.993 157.538 269.514C158.034 268.034 158.574 266.427 159.156 264.692C159.739 262.932 160.332 261.147 160.936 259.336C161.541 257.524 162.134 255.739 162.717 253.979C163.299 252.219 163.839 250.599 164.335 249.119C164.831 247.614 165.263 246.313 165.629 245.216C165.996 244.094 166.266 243.278 166.439 242.767L167.927 235.957H180.453ZM167.021 263.315H178.964L173.171 243.188L173.106 243.15L167.021 263.315Z" fill="#0FC3E8"/>
<path d="M242.084 249.923H235.87C235.784 249.591 235.708 249.272 235.644 248.966C235.6 248.66 235.546 248.354 235.482 248.048C235.115 245.778 234.295 244.043 233.022 242.844C231.749 241.62 229.818 241.007 227.228 241.007C226.171 241.007 225.222 241.16 224.38 241.467C223.539 241.773 222.816 242.206 222.212 242.767C221.629 243.329 221.176 243.992 220.852 244.757C220.529 245.522 220.367 246.377 220.367 247.321C220.367 248.775 220.744 249.974 221.5 250.918C222.255 251.861 223.28 252.716 224.574 253.481C225.869 254.221 227.369 254.948 229.073 255.662C230.778 256.351 232.58 257.18 234.478 258.149C235.73 258.762 236.906 259.489 238.006 260.33C239.128 261.147 240.11 262.116 240.952 263.238C241.793 264.335 242.451 265.623 242.926 267.103C243.422 268.557 243.67 270.228 243.67 272.116C243.67 274.131 243.336 276.044 242.667 277.855C241.998 279.641 241.038 281.222 239.786 282.6C238.556 283.952 237.046 285.023 235.255 285.814C233.464 286.605 231.447 287 229.203 287C228.124 287 227.045 286.885 225.966 286.656C224.909 286.452 223.884 286.145 222.891 285.737C221.92 285.329 221.003 284.832 220.14 284.245C219.299 283.658 218.554 282.995 217.907 282.255V286.005H210.819V270.47H217.033C217.163 271.133 217.292 271.746 217.422 272.307C217.637 273.608 217.95 274.768 218.36 275.789C218.792 276.784 219.363 277.625 220.076 278.314C220.788 279.003 221.661 279.526 222.697 279.883C223.733 280.24 224.974 280.419 226.419 280.419C227.52 280.419 228.512 280.266 229.397 279.96C230.303 279.653 231.08 279.22 231.727 278.659C232.375 278.072 232.871 277.358 233.216 276.516C233.561 275.649 233.734 274.679 233.734 273.608C233.734 272.154 233.356 270.942 232.601 269.973C231.868 268.978 230.886 268.111 229.656 267.371C228.448 266.631 227.077 265.955 225.545 265.343C224.013 264.705 222.46 264.004 220.885 263.238C217.475 261.58 214.94 259.629 213.279 257.384C211.639 255.139 210.819 252.423 210.819 249.234C210.819 247.219 211.132 245.344 211.757 243.609C212.405 241.875 213.333 240.37 214.541 239.094C215.771 237.819 217.26 236.824 219.007 236.11C220.755 235.37 222.751 235 224.995 235C226.937 235 228.847 235.281 230.724 235.842C232.623 236.403 234.403 237.462 236.064 239.018C236.064 238.661 236.054 238.303 236.032 237.946C236.032 237.589 236.032 237.258 236.032 236.951V235.918C236.161 235.918 236.442 235.918 236.873 235.918C237.327 235.918 237.844 235.931 238.427 235.957C239.031 235.957 239.657 235.957 240.304 235.957C240.973 235.957 241.567 235.957 242.084 235.957V249.923Z" fill="#0FC3E8"/>
<path d="M290.866 249.923H284.652C284.566 249.591 284.49 249.272 284.426 248.966C284.382 248.66 284.328 248.354 284.264 248.048C283.897 245.778 283.077 244.043 281.804 242.844C280.531 241.62 278.6 241.007 276.01 241.007C274.953 241.007 274.004 241.16 273.162 241.467C272.321 241.773 271.598 242.206 270.994 242.767C270.411 243.329 269.958 243.992 269.634 244.757C269.311 245.522 269.149 246.377 269.149 247.321C269.149 248.775 269.526 249.974 270.282 250.918C271.037 251.861 272.062 252.716 273.356 253.481C274.651 254.221 276.151 254.948 277.855 255.662C279.56 256.351 281.362 257.18 283.26 258.149C284.512 258.762 285.688 259.489 286.788 260.33C287.91 261.147 288.892 262.116 289.734 263.238C290.575 264.335 291.233 265.623 291.708 267.103C292.204 268.557 292.452 270.228 292.452 272.116C292.452 274.131 292.118 276.044 291.449 277.855C290.78 279.641 289.82 281.222 288.568 282.6C287.338 283.952 285.828 285.023 284.037 285.814C282.246 286.605 280.229 287 277.985 287C276.906 287 275.827 286.885 274.748 286.656C273.691 286.452 272.666 286.145 271.673 285.737C270.702 285.329 269.785 284.832 268.922 284.245C268.081 283.658 267.336 282.995 266.689 282.255V286.005H259.601V270.47H265.815C265.945 271.133 266.074 271.746 266.204 272.307C266.419 273.608 266.732 274.768 267.142 275.789C267.574 276.784 268.145 277.625 268.858 278.314C269.57 279.003 270.443 279.526 271.479 279.883C272.515 280.24 273.756 280.419 275.201 280.419C276.302 280.419 277.294 280.266 278.179 279.96C279.085 279.653 279.862 279.22 280.509 278.659C281.157 278.072 281.653 277.358 281.998 276.516C282.343 275.649 282.516 274.679 282.516 273.608C282.516 272.154 282.138 270.942 281.383 269.973C280.65 268.978 279.668 268.111 278.438 267.371C277.23 266.631 275.859 265.955 274.327 265.343C272.795 264.705 271.242 264.004 269.667 263.238C266.257 261.58 263.722 259.629 262.061 257.384C260.421 255.139 259.601 252.423 259.601 249.234C259.601 247.219 259.914 245.344 260.539 243.609C261.187 241.875 262.115 240.37 263.323 239.094C264.553 237.819 266.042 236.824 267.789 236.11C269.537 235.37 271.533 235 273.777 235C275.719 235 277.629 235.281 279.506 235.842C281.405 236.403 283.185 237.462 284.846 239.018C284.846 238.661 284.836 238.303 284.814 237.946C284.814 237.589 284.814 237.258 284.814 236.951V235.918C284.943 235.918 285.224 235.918 285.655 235.918C286.109 235.918 286.626 235.931 287.209 235.957C287.813 235.957 288.439 235.957 289.086 235.957C289.755 235.957 290.349 235.957 290.866 235.957V249.923Z" fill="#0FC3E8"/>
<path d="M344.406 235.957V249.884H338.095V248.316C338.095 247.091 337.987 246.147 337.771 245.484C337.555 244.821 337.253 244.349 336.865 244.068C336.477 243.762 336.002 243.584 335.441 243.533C334.88 243.482 334.254 243.456 333.564 243.456H322.721V257.346H329.097C329.572 257.346 329.971 257.32 330.295 257.269C330.64 257.193 330.931 257.04 331.169 256.81C331.406 256.581 331.6 256.223 331.751 255.739C331.924 255.254 332.064 254.591 332.172 253.749H334.923V267.294H332.139C332.01 266.478 331.87 265.828 331.719 265.343C331.568 264.858 331.373 264.501 331.136 264.272C330.899 264.016 330.618 263.863 330.295 263.812C329.971 263.736 329.572 263.698 329.097 263.698H322.721V278.582H334.017C334.815 278.582 335.484 278.518 336.023 278.391C336.563 278.263 336.994 277.983 337.318 277.549C337.663 277.115 337.911 276.503 338.062 275.712C338.213 274.896 338.289 273.812 338.289 272.46V271.235H344.536V286.005H307.412V279.194H309.807C310.368 279.194 310.8 279.079 311.102 278.85C311.425 278.62 311.663 278.301 311.814 277.893C311.986 277.485 312.083 277.026 312.105 276.516C312.148 276.006 312.17 275.457 312.17 274.87V247.321C312.17 246.76 312.159 246.198 312.137 245.637C312.116 245.076 312.029 244.579 311.878 244.145C311.727 243.711 311.49 243.367 311.166 243.112C310.864 242.831 310.411 242.691 309.807 242.691H307.541V235.957H344.406Z" fill="#0FC3E8"/>
<path d="M359.884 235.957C360.035 235.957 360.412 235.969 361.016 235.995C361.642 235.995 362.343 236.008 363.12 236.033C363.897 236.033 364.674 236.046 365.451 236.071C366.249 236.071 366.907 236.071 367.425 236.071C368.461 236.071 369.475 236.071 370.467 236.071C371.46 236.071 372.474 236.071 373.51 236.071C374.545 236.046 375.624 236.033 376.746 236.033C377.868 236.008 379.077 235.982 380.371 235.957V242.767H378.267C377.534 242.767 376.962 242.895 376.552 243.15C376.142 243.405 375.829 243.737 375.613 244.145C375.419 244.553 375.301 245.025 375.257 245.561C375.214 246.071 375.193 246.594 375.193 247.13V262.971C375.193 267.537 375.203 272.702 375.225 278.467H385.679C386.499 278.467 387.136 278.263 387.589 277.855C388.064 277.447 388.409 276.847 388.625 276.057C388.862 275.24 389.013 274.246 389.078 273.072C389.142 271.899 389.175 270.547 389.175 269.016H395.098V286.005H359.884V279.194H361.405C362.182 279.194 362.786 279.079 363.217 278.85C363.67 278.62 363.994 278.314 364.188 277.932C364.404 277.549 364.534 277.09 364.577 276.554C364.62 276.018 364.641 275.444 364.641 274.832V248.163V246.67C364.641 246.16 364.609 245.675 364.544 245.216C364.48 244.732 364.339 244.311 364.124 243.954C363.908 243.597 363.584 243.316 363.153 243.112C362.721 242.882 362.138 242.767 361.405 242.767H359.884V235.957Z" fill="#0FC3E8"/>
<path d="M414.912 246.096C414.977 246.351 415.15 246.951 415.43 247.895C415.732 248.813 416.099 249.961 416.531 251.338C416.984 252.716 417.48 254.259 418.019 255.968C418.559 257.652 419.109 259.374 419.67 261.134C420.231 262.894 420.781 264.629 421.321 266.338C421.882 268.021 422.378 269.552 422.81 270.929C423.263 272.307 423.629 273.468 423.91 274.411C424.212 275.33 424.406 275.904 424.493 276.133L433.523 246.211C433.631 245.803 433.717 245.446 433.782 245.14C433.868 244.834 433.911 244.579 433.911 244.375C433.911 243.737 433.652 243.329 433.134 243.15C432.638 242.972 431.85 242.857 430.772 242.806C430.664 242.806 430.437 242.806 430.092 242.806C429.768 242.806 429.552 242.793 429.445 242.767V235.957C430.696 235.982 431.872 235.995 432.972 235.995C433.426 235.995 433.89 236.008 434.364 236.033C434.839 236.033 435.281 236.033 435.691 236.033C436.123 236.033 436.511 236.033 436.856 236.033C437.202 236.033 437.471 236.033 437.666 236.033C438.895 236.033 440.147 236.033 441.42 236.033C442.693 236.033 444.085 236.008 445.595 235.957V242.767C444.689 242.767 443.945 242.933 443.362 243.265C442.801 243.571 442.294 244.094 441.841 244.834C441.409 245.573 440.988 246.556 440.578 247.78C440.19 248.979 439.715 250.471 439.154 252.257L428.215 286.579H418.473L405.397 248.086C405.095 247.219 404.814 246.454 404.555 245.79C404.318 245.127 404.016 244.579 403.649 244.145C403.304 243.686 402.872 243.341 402.354 243.112C401.836 242.882 401.168 242.767 400.348 242.767V235.957C400.52 235.957 400.865 235.969 401.383 235.995C401.923 235.995 402.516 236.008 403.163 236.033C403.832 236.033 404.501 236.046 405.17 236.071C405.839 236.071 406.411 236.071 406.885 236.071C407.166 236.071 407.554 236.071 408.051 236.071C408.547 236.071 409.097 236.071 409.701 236.071C410.327 236.071 410.996 236.071 411.708 236.071C412.42 236.046 413.121 236.033 413.812 236.033C415.452 236.008 417.21 235.982 419.087 235.957V242.767C418.462 242.793 417.879 242.818 417.34 242.844C416.8 242.87 416.326 242.946 415.916 243.074C415.527 243.176 415.214 243.354 414.977 243.609C414.761 243.839 414.653 244.183 414.653 244.642C414.653 244.821 414.664 245.038 414.686 245.293C414.729 245.522 414.804 245.79 414.912 246.096Z" fill="#0FC3E8"/>
<path d="M458.063 235.957C459.034 235.982 459.918 236.008 460.717 236.033C461.515 236.033 462.259 236.033 462.95 236.033C463.64 236.033 464.298 236.033 464.924 236.033C465.571 236.033 466.208 236.033 466.834 236.033C468.128 236.033 469.272 236.033 470.265 236.033C471.279 236.033 472.206 236.033 473.048 236.033C473.911 236.033 474.731 236.033 475.508 236.033C476.306 236.008 477.137 235.982 478 235.957V242.767H476.641C475.864 242.767 475.249 242.857 474.796 243.035C474.364 243.188 474.03 243.431 473.792 243.762C473.577 244.068 473.436 244.451 473.372 244.91C473.329 245.344 473.307 245.841 473.307 246.403V275.712C473.307 276.401 473.329 276.975 473.372 277.434C473.415 277.868 473.544 278.225 473.76 278.506C473.976 278.761 474.299 278.939 474.731 279.041C475.184 279.143 475.821 279.194 476.641 279.194H478V286.005C477.202 286.005 476.425 286.005 475.67 286.005C474.914 285.98 474.138 285.967 473.339 285.967C472.563 285.967 471.721 285.967 470.815 285.967C469.93 285.941 468.959 285.929 467.902 285.929C465.917 285.929 464.158 285.941 462.626 285.967C461.116 285.992 459.595 286.005 458.063 286.005V279.194H459.357C460.199 279.194 460.846 279.105 461.299 278.926C461.752 278.748 462.087 278.48 462.302 278.123C462.518 277.766 462.637 277.319 462.659 276.784C462.702 276.248 462.723 275.623 462.723 274.909V247.168C462.723 246.428 462.702 245.79 462.659 245.255C462.615 244.693 462.486 244.234 462.27 243.877C462.054 243.494 461.72 243.214 461.267 243.035C460.814 242.857 460.177 242.767 459.357 242.767H458.063V235.957Z" fill="#0FC3E8"/>
<path d="M2 235.957C2.32366 235.957 2.83073 235.969 3.5212 235.995C4.23325 235.995 4.99925 236.008 5.81919 236.033C6.63912 236.033 7.45906 236.046 8.279 236.071C9.12052 236.071 9.84336 236.071 10.4475 236.071C11.289 236.071 12.109 236.071 12.9073 236.071C13.7273 236.071 14.558 236.071 15.3995 236.071C16.241 236.046 17.1149 236.033 18.0212 236.033C18.949 236.008 19.9308 235.982 20.9665 235.957V242.767H19.8984C19.1216 242.767 18.5174 242.895 18.0859 243.15C17.6759 243.38 17.3631 243.699 17.1473 244.107C16.9531 244.489 16.8344 244.948 16.7913 245.484C16.7481 245.994 16.7265 246.517 16.7265 247.053V266.988C16.7265 269.029 16.856 270.84 17.1149 272.422C17.3954 273.978 17.8593 275.291 18.5067 276.363C19.154 277.409 20.0279 278.212 21.1283 278.773C22.2287 279.309 23.6097 279.577 25.2711 279.577C26.7816 279.577 28.033 279.322 29.0256 278.812C30.0182 278.301 30.8057 277.536 31.3883 276.516C31.9709 275.495 32.3809 274.233 32.6182 272.728C32.8556 271.223 32.9742 269.475 32.9742 267.486V246.747C32.9742 246.262 32.9527 245.79 32.9095 245.331C32.8664 244.846 32.7369 244.413 32.5211 244.03C32.3053 243.648 31.9709 243.341 31.5178 243.112C31.0862 242.882 30.4821 242.767 29.7053 242.767H28.5401V235.957C28.8206 235.982 29.3169 236.008 30.0289 236.033C30.741 236.033 31.5286 236.033 32.3917 236.033C33.2547 236.033 34.1178 236.033 34.9809 236.033C35.844 236.033 36.5884 236.033 37.2142 236.033C37.5594 236.033 38.0125 236.033 38.5736 236.033C39.1346 236.033 39.7495 236.033 40.4184 236.033C41.1089 236.008 41.8209 235.995 42.5546 235.995C43.3098 235.969 44.0326 235.957 44.7231 235.957V242.767H43.2019C42.4467 242.767 41.8749 242.921 41.4865 243.227C41.1197 243.507 40.85 243.864 40.6773 244.298C40.5263 244.732 40.4508 245.204 40.4508 245.714C40.4508 246.198 40.4508 246.645 40.4508 247.053V266.873C40.4508 270.164 40.1379 273.072 39.5122 275.597C38.8864 278.097 37.8939 280.202 36.5345 281.911C35.1967 283.595 33.4489 284.87 31.2912 285.737C29.1551 286.579 26.5658 287 23.5234 287C20.4594 287 17.827 286.605 15.6261 285.814C13.4468 284.998 11.6559 283.773 10.2533 282.141C8.87238 280.482 7.85824 278.416 7.21092 275.942C6.5636 273.442 6.23994 270.508 6.23994 267.141V245.714C6.23994 245.433 6.21837 245.127 6.17521 244.795C6.13206 244.438 6.01338 244.119 5.81919 243.839C5.62499 243.533 5.3337 243.278 4.9453 243.074C4.57849 242.87 4.06063 242.767 3.39174 242.767H2V235.957Z" stroke="#0FC3E8" stroke-width="4" mask="url(#path-3-outside-1_16_53)"/>
<path d="M66.4471 235.957C66.5766 235.957 66.8355 235.957 67.2239 235.957C67.6123 235.957 68.0654 235.957 68.5833 235.957C69.1227 235.957 69.6837 235.957 70.2663 235.957C70.8705 235.957 71.4315 235.957 71.9494 235.957C72.4888 235.957 72.9527 235.957 73.3411 235.957C73.7511 235.957 74.0208 235.957 74.1502 235.957L92.6312 272.804H92.696L92.6636 245.982C92.6636 245.267 92.6204 244.706 92.5341 244.298C92.4478 243.864 92.286 243.533 92.0486 243.303C91.8113 243.074 91.4768 242.933 91.0453 242.882C90.6353 242.806 90.0959 242.767 89.427 242.767H87.9382V235.957C89.5565 235.957 91.0021 235.969 92.2752 235.995C93.5698 236.02 94.7458 236.033 95.8031 236.033C95.9541 236.033 96.1915 236.033 96.5151 236.033C96.8604 236.033 97.2488 236.033 97.6803 236.033C98.1119 236.033 98.5758 236.033 99.0721 236.033C99.5683 236.008 100.065 235.995 100.561 235.995C101.726 235.995 102.999 235.982 104.38 235.957V242.767H102.729C101.996 242.767 101.435 242.87 101.046 243.074C100.658 243.252 100.367 243.52 100.172 243.877C99.9999 244.209 99.892 244.63 99.8488 245.14C99.8273 245.624 99.8165 246.16 99.8165 246.747C99.8165 246.798 99.8165 247.41 99.8165 248.584C99.8165 249.757 99.8165 251.287 99.8165 253.175C99.8165 255.037 99.8165 257.155 99.8165 259.527C99.8165 261.899 99.8165 264.323 99.8165 266.797V286.541H89.1681L69.7161 248.201H69.6514L69.6837 275.827C69.6837 276.618 69.7161 277.243 69.7808 277.702C69.8671 278.136 70.029 278.467 70.2663 278.697C70.5253 278.926 70.8705 279.067 71.302 279.118C71.7336 279.169 72.3054 279.194 73.0174 279.194H74.6034V286.005C73.3735 286.005 72.122 285.992 70.8489 285.967C69.5974 285.941 68.141 285.929 66.4795 285.929C65.5517 285.929 64.7102 285.941 63.955 285.967C63.1998 285.967 62.4769 285.967 61.7864 285.967C61.1175 285.967 60.4594 285.98 59.8121 286.005C59.1648 286.005 58.4959 286.005 57.8054 286.005V279.194H59.4885C60.2868 279.194 60.891 279.105 61.301 278.926C61.7325 278.748 62.0454 278.48 62.2396 278.123C62.4338 277.766 62.5416 277.319 62.5632 276.784C62.5848 276.222 62.5956 275.572 62.5956 274.832V246.632C62.5956 245.867 62.574 245.242 62.5309 244.757C62.4877 244.247 62.3582 243.852 62.1425 243.571C61.9483 243.265 61.6462 243.061 61.2362 242.959C60.8263 242.831 60.2652 242.767 59.5532 242.767H57.8702V235.957H66.4471Z" stroke="#0FC3E8" stroke-width="4" mask="url(#path-3-outside-1_16_53)"/>
<path d="M118.466 235.957C119.437 235.982 120.321 236.008 121.12 236.033C121.918 236.033 122.663 236.033 123.353 236.033C124.043 236.033 124.702 236.033 125.327 236.033C125.975 236.033 126.611 236.033 127.237 236.033C128.532 236.033 129.675 236.033 130.668 236.033C131.682 236.033 132.61 236.033 133.451 236.033C134.314 236.033 135.134 236.033 135.911 236.033C136.709 236.008 137.54 235.982 138.403 235.957V242.767H137.044C136.267 242.767 135.652 242.857 135.199 243.035C134.767 243.188 134.433 243.431 134.196 243.762C133.98 244.068 133.84 244.451 133.775 244.91C133.732 245.344 133.71 245.841 133.71 246.403V275.712C133.71 276.401 133.732 276.975 133.775 277.434C133.818 277.868 133.947 278.225 134.163 278.506C134.379 278.761 134.703 278.939 135.134 279.041C135.587 279.143 136.224 279.194 137.044 279.194H138.403V286.005C137.605 286.005 136.828 286.005 136.073 286.005C135.318 285.98 134.541 285.967 133.742 285.967C132.966 285.967 132.124 285.967 131.218 285.967C130.333 285.941 129.362 285.929 128.305 285.929C126.32 285.929 124.561 285.941 123.029 285.967C121.519 285.992 119.998 286.005 118.466 286.005V279.194H119.76C120.602 279.194 121.249 279.105 121.702 278.926C122.155 278.748 122.49 278.48 122.706 278.123C122.921 277.766 123.04 277.319 123.062 276.784C123.105 276.248 123.126 275.623 123.126 274.909V247.168C123.126 246.428 123.105 245.79 123.062 245.255C123.019 244.693 122.889 244.234 122.673 243.877C122.458 243.494 122.123 243.214 121.67 243.035C121.217 242.857 120.58 242.767 119.76 242.767H118.466V235.957Z" stroke="#0FC3E8" stroke-width="4" mask="url(#path-3-outside-1_16_53)"/>
<path d="M180.453 235.957C182.33 241.977 184.046 247.461 185.599 252.41C186.268 254.527 186.926 256.632 187.574 258.723C188.221 260.79 188.814 262.703 189.354 264.463C189.915 266.197 190.389 267.69 190.778 268.94C191.166 270.164 191.425 270.98 191.555 271.389C192.094 273.149 192.515 274.539 192.817 275.559C193.119 276.58 193.453 277.358 193.82 277.893C194.209 278.429 194.694 278.786 195.277 278.965C195.859 279.118 196.701 279.207 197.801 279.233V286.005C196.528 286.005 195.287 285.992 194.079 285.967C192.892 285.941 191.511 285.929 189.936 285.929C188.081 285.929 186.257 285.941 184.466 285.967C182.697 285.967 180.777 285.98 178.705 286.005V279.692C178.792 279.692 178.91 279.692 179.061 279.692C179.234 279.692 179.407 279.692 179.579 279.692C179.752 279.692 179.914 279.692 180.065 279.692C180.216 279.666 180.324 279.653 180.388 279.653C181.424 279.602 182.136 279.475 182.524 279.271C182.913 279.067 183.107 278.71 183.107 278.199C183.107 277.893 183.053 277.523 182.945 277.09C182.837 276.631 182.697 276.108 182.524 275.521L180.453 268.289H165.532C165.468 268.57 165.317 269.118 165.079 269.935C164.842 270.725 164.583 271.58 164.302 272.498C164.044 273.416 163.806 274.271 163.59 275.062C163.375 275.853 163.245 276.35 163.202 276.554C163.094 276.911 163.008 277.243 162.943 277.549C162.9 277.83 162.878 278.059 162.878 278.238C162.878 278.799 163.019 279.182 163.299 279.386C163.601 279.564 164.097 279.666 164.788 279.692C164.853 279.692 164.993 279.704 165.209 279.73C165.424 279.73 165.662 279.73 165.921 279.73C166.18 279.73 166.417 279.73 166.633 279.73C166.87 279.73 167.032 279.73 167.118 279.73V286.005C165.802 286.005 164.475 285.992 163.137 285.967C161.799 285.941 160.354 285.929 158.8 285.929C158.045 285.929 157.333 285.929 156.664 285.929C156.017 285.929 155.38 285.941 154.754 285.967C154.129 285.967 153.492 285.98 152.845 286.005C152.198 286.005 151.507 286.005 150.773 286.005V279.194C151.55 279.092 152.176 279.003 152.651 278.926C153.147 278.85 153.557 278.71 153.881 278.506C154.204 278.276 154.485 277.957 154.722 277.549C154.959 277.115 155.208 276.516 155.467 275.751C155.639 275.266 155.909 274.475 156.276 273.378C156.643 272.281 157.063 270.993 157.538 269.514C158.034 268.034 158.574 266.427 159.156 264.692C159.739 262.932 160.332 261.147 160.936 259.336C161.541 257.524 162.134 255.739 162.717 253.979C163.299 252.219 163.839 250.599 164.335 249.119C164.831 247.614 165.263 246.313 165.629 245.216C165.996 244.094 166.266 243.278 166.439 242.767L167.927 235.957H180.453ZM167.021 263.315H178.964L173.171 243.188L173.106 243.15L167.021 263.315Z" stroke="#0FC3E8" stroke-width="4" mask="url(#path-3-outside-1_16_53)"/>
<path d="M242.084 249.923H235.87C235.784 249.591 235.708 249.272 235.644 248.966C235.6 248.66 235.546 248.354 235.482 248.048C235.115 245.778 234.295 244.043 233.022 242.844C231.749 241.62 229.818 241.007 227.228 241.007C226.171 241.007 225.222 241.16 224.38 241.467C223.539 241.773 222.816 242.206 222.212 242.767C221.629 243.329 221.176 243.992 220.852 244.757C220.529 245.522 220.367 246.377 220.367 247.321C220.367 248.775 220.744 249.974 221.5 250.918C222.255 251.861 223.28 252.716 224.574 253.481C225.869 254.221 227.369 254.948 229.073 255.662C230.778 256.351 232.58 257.18 234.478 258.149C235.73 258.762 236.906 259.489 238.006 260.33C239.128 261.147 240.11 262.116 240.952 263.238C241.793 264.335 242.451 265.623 242.926 267.103C243.422 268.557 243.67 270.228 243.67 272.116C243.67 274.131 243.336 276.044 242.667 277.855C241.998 279.641 241.038 281.222 239.786 282.6C238.556 283.952 237.046 285.023 235.255 285.814C233.464 286.605 231.447 287 229.203 287C228.124 287 227.045 286.885 225.966 286.656C224.909 286.452 223.884 286.145 222.891 285.737C221.92 285.329 221.003 284.832 220.14 284.245C219.299 283.658 218.554 282.995 217.907 282.255V286.005H210.819V270.47H217.033C217.163 271.133 217.292 271.746 217.422 272.307C217.637 273.608 217.95 274.768 218.36 275.789C218.792 276.784 219.363 277.625 220.076 278.314C220.788 279.003 221.661 279.526 222.697 279.883C223.733 280.24 224.974 280.419 226.419 280.419C227.52 280.419 228.512 280.266 229.397 279.96C230.303 279.653 231.08 279.22 231.727 278.659C232.375 278.072 232.871 277.358 233.216 276.516C233.561 275.649 233.734 274.679 233.734 273.608C233.734 272.154 233.356 270.942 232.601 269.973C231.868 268.978 230.886 268.111 229.656 267.371C228.448 266.631 227.077 265.955 225.545 265.343C224.013 264.705 222.46 264.004 220.885 263.238C217.475 261.58 214.94 259.629 213.279 257.384C211.639 255.139 210.819 252.423 210.819 249.234C210.819 247.219 211.132 245.344 211.757 243.609C212.405 241.875 213.333 240.37 214.541 239.094C215.771 237.819 217.26 236.824 219.007 236.11C220.755 235.37 222.751 235 224.995 235C226.937 235 228.847 235.281 230.724 235.842C232.623 236.403 234.403 237.462 236.064 239.018C236.064 238.661 236.054 238.303 236.032 237.946C236.032 237.589 236.032 237.258 236.032 236.951V235.918C236.161 235.918 236.442 235.918 236.873 235.918C237.327 235.918 237.844 235.931 238.427 235.957C239.031 235.957 239.657 235.957 240.304 235.957C240.973 235.957 241.567 235.957 242.084 235.957V249.923Z" stroke="#0FC3E8" stroke-width="4" mask="url(#path-3-outside-1_16_53)"/>
<path d="M290.866 249.923H284.652C284.566 249.591 284.49 249.272 284.426 248.966C284.382 248.66 284.328 248.354 284.264 248.048C283.897 245.778 283.077 244.043 281.804 242.844C280.531 241.62 278.6 241.007 276.01 241.007C274.953 241.007 274.004 241.16 273.162 241.467C272.321 241.773 271.598 242.206 270.994 242.767C270.411 243.329 269.958 243.992 269.634 244.757C269.311 245.522 269.149 246.377 269.149 247.321C269.149 248.775 269.526 249.974 270.282 250.918C271.037 251.861 272.062 252.716 273.356 253.481C274.651 254.221 276.151 254.948 277.855 255.662C279.56 256.351 281.362 257.18 283.26 258.149C284.512 258.762 285.688 259.489 286.788 260.33C287.91 261.147 288.892 262.116 289.734 263.238C290.575 264.335 291.233 265.623 291.708 267.103C292.204 268.557 292.452 270.228 292.452 272.116C292.452 274.131 292.118 276.044 291.449 277.855C290.78 279.641 289.82 281.222 288.568 282.6C287.338 283.952 285.828 285.023 284.037 285.814C282.246 286.605 280.229 287 277.985 287C276.906 287 275.827 286.885 274.748 286.656C273.691 286.452 272.666 286.145 271.673 285.737C270.702 285.329 269.785 284.832 268.922 284.245C268.081 283.658 267.336 282.995 266.689 282.255V286.005H259.601V270.47H265.815C265.945 271.133 266.074 271.746 266.204 272.307C266.419 273.608 266.732 274.768 267.142 275.789C267.574 276.784 268.145 277.625 268.858 278.314C269.57 279.003 270.443 279.526 271.479 279.883C272.515 280.24 273.756 280.419 275.201 280.419C276.302 280.419 277.294 280.266 278.179 279.96C279.085 279.653 279.862 279.22 280.509 278.659C281.157 278.072 281.653 277.358 281.998 276.516C282.343 275.649 282.516 274.679 282.516 273.608C282.516 272.154 282.138 270.942 281.383 269.973C280.65 268.978 279.668 268.111 278.438 267.371C277.23 266.631 275.859 265.955 274.327 265.343C272.795 264.705 271.242 264.004 269.667 263.238C266.257 261.58 263.722 259.629 262.061 257.384C260.421 255.139 259.601 252.423 259.601 249.234C259.601 247.219 259.914 245.344 260.539 243.609C261.187 241.875 262.115 240.37 263.323 239.094C264.553 237.819 266.042 236.824 267.789 236.11C269.537 235.37 271.533 235 273.777 235C275.719 235 277.629 235.281 279.506 235.842C281.405 236.403 283.185 237.462 284.846 239.018C284.846 238.661 284.836 238.303 284.814 237.946C284.814 237.589 284.814 237.258 284.814 236.951V235.918C284.943 235.918 285.224 235.918 285.655 235.918C286.109 235.918 286.626 235.931 287.209 235.957C287.813 235.957 288.439 235.957 289.086 235.957C289.755 235.957 290.349 235.957 290.866 235.957V249.923Z" stroke="#0FC3E8" stroke-width="4" mask="url(#path-3-outside-1_16_53)"/>
<path d="M344.406 235.957V249.884H338.095V248.316C338.095 247.091 337.987 246.147 337.771 245.484C337.555 244.821 337.253 244.349 336.865 244.068C336.477 243.762 336.002 243.584 335.441 243.533C334.88 243.482 334.254 243.456 333.564 243.456H322.721V257.346H329.097C329.572 257.346 329.971 257.32 330.295 257.269C330.64 257.193 330.931 257.04 331.169 256.81C331.406 256.581 331.6 256.223 331.751 255.739C331.924 255.254 332.064 254.591 332.172 253.749H334.923V267.294H332.139C332.01 266.478 331.87 265.828 331.719 265.343C331.568 264.858 331.373 264.501 331.136 264.272C330.899 264.016 330.618 263.863 330.295 263.812C329.971 263.736 329.572 263.698 329.097 263.698H322.721V278.582H334.017C334.815 278.582 335.484 278.518 336.023 278.391C336.563 278.263 336.994 277.983 337.318 277.549C337.663 277.115 337.911 276.503 338.062 275.712C338.213 274.896 338.289 273.812 338.289 272.46V271.235H344.536V286.005H307.412V279.194H309.807C310.368 279.194 310.8 279.079 311.102 278.85C311.425 278.62 311.663 278.301 311.814 277.893C311.986 277.485 312.083 277.026 312.105 276.516C312.148 276.006 312.17 275.457 312.17 274.87V247.321C312.17 246.76 312.159 246.198 312.137 245.637C312.116 245.076 312.029 244.579 311.878 244.145C311.727 243.711 311.49 243.367 311.166 243.112C310.864 242.831 310.411 242.691 309.807 242.691H307.541V235.957H344.406Z" stroke="#0FC3E8" stroke-width="4" mask="url(#path-3-outside-1_16_53)"/>
<path d="M359.884 235.957C360.035 235.957 360.412 235.969 361.016 235.995C361.642 235.995 362.343 236.008 363.12 236.033C363.897 236.033 364.674 236.046 365.451 236.071C366.249 236.071 366.907 236.071 367.425 236.071C368.461 236.071 369.475 236.071 370.467 236.071C371.46 236.071 372.474 236.071 373.51 236.071C374.545 236.046 375.624 236.033 376.746 236.033C377.868 236.008 379.077 235.982 380.371 235.957V242.767H378.267C377.534 242.767 376.962 242.895 376.552 243.15C376.142 243.405 375.829 243.737 375.613 244.145C375.419 244.553 375.301 245.025 375.257 245.561C375.214 246.071 375.193 246.594 375.193 247.13V262.971C375.193 267.537 375.203 272.702 375.225 278.467H385.679C386.499 278.467 387.136 278.263 387.589 277.855C388.064 277.447 388.409 276.847 388.625 276.057C388.862 275.24 389.013 274.246 389.078 273.072C389.142 271.899 389.175 270.547 389.175 269.016H395.098V286.005H359.884V279.194H361.405C362.182 279.194 362.786 279.079 363.217 278.85C363.67 278.62 363.994 278.314 364.188 277.932C364.404 277.549 364.534 277.09 364.577 276.554C364.62 276.018 364.641 275.444 364.641 274.832V248.163V246.67C364.641 246.16 364.609 245.675 364.544 245.216C364.48 244.732 364.339 244.311 364.124 243.954C363.908 243.597 363.584 243.316 363.153 243.112C362.721 242.882 362.138 242.767 361.405 242.767H359.884V235.957Z" stroke="#0FC3E8" stroke-width="4" mask="url(#path-3-outside-1_16_53)"/>
<path d="M414.912 246.096C414.977 246.351 415.15 246.951 415.43 247.895C415.732 248.813 416.099 249.961 416.531 251.338C416.984 252.716 417.48 254.259 418.019 255.968C418.559 257.652 419.109 259.374 419.67 261.134C420.231 262.894 420.781 264.629 421.321 266.338C421.882 268.021 422.378 269.552 422.81 270.929C423.263 272.307 423.629 273.468 423.91 274.411C424.212 275.33 424.406 275.904 424.493 276.133L433.523 246.211C433.631 245.803 433.717 245.446 433.782 245.14C433.868 244.834 433.911 244.579 433.911 244.375C433.911 243.737 433.652 243.329 433.134 243.15C432.638 242.972 431.85 242.857 430.772 242.806C430.664 242.806 430.437 242.806 430.092 242.806C429.768 242.806 429.552 242.793 429.445 242.767V235.957C430.696 235.982 431.872 235.995 432.972 235.995C433.426 235.995 433.89 236.008 434.364 236.033C434.839 236.033 435.281 236.033 435.691 236.033C436.123 236.033 436.511 236.033 436.856 236.033C437.202 236.033 437.471 236.033 437.666 236.033C438.895 236.033 440.147 236.033 441.42 236.033C442.693 236.033 444.085 236.008 445.595 235.957V242.767C444.689 242.767 443.945 242.933 443.362 243.265C442.801 243.571 442.294 244.094 441.841 244.834C441.409 245.573 440.988 246.556 440.578 247.78C440.19 248.979 439.715 250.471 439.154 252.257L428.215 286.579H418.473L405.397 248.086C405.095 247.219 404.814 246.454 404.555 245.79C404.318 245.127 404.016 244.579 403.649 244.145C403.304 243.686 402.872 243.341 402.354 243.112C401.836 242.882 401.168 242.767 400.348 242.767V235.957C400.52 235.957 400.865 235.969 401.383 235.995C401.923 235.995 402.516 236.008 403.163 236.033C403.832 236.033 404.501 236.046 405.17 236.071C405.839 236.071 406.411 236.071 406.885 236.071C407.166 236.071 407.554 236.071 408.051 236.071C408.547 236.071 409.097 236.071 409.701 236.071C410.327 236.071 410.996 236.071 411.708 236.071C412.42 236.046 413.121 236.033 413.812 236.033C415.452 236.008 417.21 235.982 419.087 235.957V242.767C418.462 242.793 417.879 242.818 417.34 242.844C416.8 242.87 416.326 242.946 415.916 243.074C415.527 243.176 415.214 243.354 414.977 243.609C414.761 243.839 414.653 244.183 414.653 244.642C414.653 244.821 414.664 245.038 414.686 245.293C414.729 245.522 414.804 245.79 414.912 246.096Z" stroke="#0FC3E8" stroke-width="4" mask="url(#path-3-outside-1_16_53)"/>
<path d="M458.063 235.957C459.034 235.982 459.918 236.008 460.717 236.033C461.515 236.033 462.259 236.033 462.95 236.033C463.64 236.033 464.298 236.033 464.924 236.033C465.571 236.033 466.208 236.033 466.834 236.033C468.128 236.033 469.272 236.033 470.265 236.033C471.279 236.033 472.206 236.033 473.048 236.033C473.911 236.033 474.731 236.033 475.508 236.033C476.306 236.008 477.137 235.982 478 235.957V242.767H476.641C475.864 242.767 475.249 242.857 474.796 243.035C474.364 243.188 474.03 243.431 473.792 243.762C473.577 244.068 473.436 244.451 473.372 244.91C473.329 245.344 473.307 245.841 473.307 246.403V275.712C473.307 276.401 473.329 276.975 473.372 277.434C473.415 277.868 473.544 278.225 473.76 278.506C473.976 278.761 474.299 278.939 474.731 279.041C475.184 279.143 475.821 279.194 476.641 279.194H478V286.005C477.202 286.005 476.425 286.005 475.67 286.005C474.914 285.98 474.138 285.967 473.339 285.967C472.563 285.967 471.721 285.967 470.815 285.967C469.93 285.941 468.959 285.929 467.902 285.929C465.917 285.929 464.158 285.941 462.626 285.967C461.116 285.992 459.595 286.005 458.063 286.005V279.194H459.357C460.199 279.194 460.846 279.105 461.299 278.926C461.752 278.748 462.087 278.48 462.302 278.123C462.518 277.766 462.637 277.319 462.659 276.784C462.702 276.248 462.723 275.623 462.723 274.909V247.168C462.723 246.428 462.702 245.79 462.659 245.255C462.615 244.693 462.486 244.234 462.27 243.877C462.054 243.494 461.72 243.214 461.267 243.035C460.814 242.857 460.177 242.767 459.357 242.767H458.063V235.957Z" stroke="#0FC3E8" stroke-width="4" mask="url(#path-3-outside-1_16_53)"/>
</svg>
